<svg version="1.1" id="Layer_1" xmlns="http://www.w3.org/2000/svg" xmlns:xlink="http://www.w3.org/1999/xlink" x="0px" y="0px"
	 width="100%" viewBox="0 0 1254 1254" enable-background="new 0 0 1254 1254" xml:space="preserve">
<path fill="#000000" opacity="1.000000" stroke="none" 
	d="
M0.999995,976.000000 
	C1.000000,737.971985 1.000000,499.943939 1.385497,261.362061 
	C2.162809,259.970032 2.795115,259.162811 2.907458,258.288727 
	C3.643260,252.563797 4.377670,246.834671 4.907000,241.087982 
	C6.908307,219.360657 12.559291,198.512848 19.842760,178.038574 
	C20.770271,175.431305 21.292219,172.679764 22.001064,169.997528 
	C22.000076,170.000000 21.996313,170.003601 22.333344,169.866882 
	C23.116119,168.148331 23.561867,166.566513 24.003801,164.992340 
	C23.999989,165.000000 23.989872,165.013855 24.280451,164.890472 
	C24.716734,164.173187 24.862438,163.579269 25.004070,162.992691 
	C24.999998,163.000015 24.990173,163.013718 25.278313,162.887115 
	C25.713892,162.168549 25.861334,161.576584 26.004467,160.992294 
	C26.000162,160.999954 25.989708,161.014084 26.314953,160.892105 
	C28.762936,156.175674 30.885670,151.581223 33.004223,146.993408 
	C33.000038,147.000061 32.991013,147.013062 33.268311,146.872406 
	C33.700066,146.149384 33.854519,145.567001 34.004490,144.992310 
	C34.000008,145.000000 33.989853,145.014679 34.268929,144.877167 
	C34.701706,144.154465 34.855404,143.569305 35.004578,142.992065 
	C35.000053,143.000000 34.989529,143.014969 35.280701,142.888550 
	C35.716175,142.171722 35.860481,141.581345 36.002518,140.995453 
	C36.000240,140.999969 35.992737,141.006302 36.346207,140.986023 
	C37.135460,139.973450 37.571247,138.981171 38.003517,137.994461 
	C38.000000,138.000031 37.992161,138.010818 38.275146,137.876587 
	C38.708450,137.156097 38.858765,136.569839 39.004635,135.991547 
	C39.000187,135.999481 38.987373,136.012329 39.340050,135.984558 
	C40.130959,134.967300 40.569191,133.977844 41.003616,132.994263 
	C40.999809,133.000137 40.989487,133.009766 41.240738,132.937805 
	C41.665062,132.573471 41.838139,132.281082 42.005890,131.994354 
	C42.000568,132.000000 41.991474,132.012604 42.310226,131.871216 
	C43.088280,130.482666 43.547573,129.235504 44.003540,127.994087 
	C44.000217,127.999825 43.990582,128.008835 44.344330,127.983780 
	C45.133610,126.969818 45.569141,125.980919 46.002419,124.996010 
	C46.000156,125.000000 45.993286,125.005821 46.346043,124.981415 
	C47.135590,123.966499 47.572376,122.975990 48.004669,121.992599 
	C48.000172,121.999725 47.988289,122.011589 48.340321,121.978180 
	C49.130585,120.959297 49.568817,119.973824 50.003601,118.994110 
	C50.000156,118.999863 49.990128,119.008659 50.341843,119.009567 
	C53.131397,115.336380 55.569241,111.662292 58.003639,107.994003 
	C58.000198,107.999802 57.990044,108.008553 58.337662,108.017166 
	C59.460350,107.013535 60.235424,106.001297 61.005287,104.994797 
	C61.000080,105.000534 60.990505,105.012764 61.303043,104.901688 
	C62.079163,103.857124 62.542740,102.923637 63.003265,101.995026 
	C63.000217,101.999893 62.991520,102.007210 63.339050,102.010239 
	C64.794640,100.671982 65.902695,99.330704 67.005173,97.995102 
	C66.999580,98.000778 66.988029,98.011749 67.262192,97.902611 
	C67.825142,97.521683 68.113937,97.249901 68.514503,96.887199 
	C68.767601,96.663322 68.883598,96.511063 69.242043,96.105392 
	C71.006340,93.913765 72.502869,91.956245 73.999695,89.999359 
	C74.000000,90.000000 73.998749,89.999680 74.275787,89.861404 
	C74.700188,89.151001 74.847549,88.578873 74.997299,88.003395 
	C74.999695,88.000046 75.004982,87.994125 75.355499,88.016518 
	C80.141174,83.207947 84.576324,78.376984 89.095840,73.450775 
	C89.296997,73.232048 89.421822,73.117310 89.962860,73.055984 
	C92.584335,71.063057 94.797615,69.025436 97.005173,66.994034 
	C96.999451,67.000259 96.984863,67.008812 97.295776,67.029106 
	C98.075417,66.696938 98.544144,66.344467 99.006790,65.996033 
	C99.000710,66.000061 98.990242,66.010109 99.335930,65.975464 
	C102.791451,62.956470 105.901291,59.972118 109.005280,56.993973 
	C108.999435,57.000187 108.984688,57.008808 109.295746,57.026123 
	C110.072784,56.694290 110.538750,56.345146 111.002365,55.998001 
	C111.000000,56.000000 110.995323,56.003555 111.326019,55.983177 
	C112.108147,55.304546 112.559570,54.646290 113.005363,53.994091 
	C112.999733,54.000145 112.985672,54.008949 113.355194,54.036804 
	C118.818588,50.373989 123.912453,46.683315 129.003159,42.996410 
	C129.000000,43.000179 128.991257,43.005028 129.342331,43.048141 
	C130.796188,42.393337 131.898972,41.695423 133.000885,40.998756 
	C133.000000,41.000000 132.997223,41.001110 133.358688,40.989098 
	C137.816956,38.314327 141.913757,35.651566 146.005096,32.994511 
	C145.999649,33.000214 145.985779,33.007996 146.300934,33.029671 
	C147.080597,32.698463 147.545120,32.345585 148.004837,31.996353 
	C148.000031,32.000000 147.989807,32.006023 148.369720,32.044632 
	C156.950836,28.501646 165.170319,24.961094 173.343506,21.316690 
	C176.292175,20.001886 179.129684,18.437775 182.008820,16.993776 
	C181.999741,17.000122 181.980057,17.010477 182.385529,17.038853 
	C184.077774,16.802288 185.413483,16.678450 186.644135,16.251701 
	C214.876526,6.461758 244.086761,2.672027 273.805542,1.920960 
	C275.210571,1.885452 276.602142,1.319123 278.000000,1.000000 
	C510.694702,1.000000 743.389404,1.000000 976.843140,1.286512 
	C988.653015,2.373780 999.701172,3.215231 1010.755371,3.966287 
	C1030.040161,5.276548 1048.698242,9.665457 1067.012207,15.583894 
	C1086.387939,21.845438 1104.449097,30.984859 1121.964722,41.273952 
	C1123.468506,42.157269 1125.322388,42.444271 1127.006836,43.004391 
	C1127.000000,43.000492 1126.989624,42.988884 1127.014404,43.344986 
	C1128.026001,44.133587 1129.013062,44.566090 1130.000000,44.999294 
	C1130.000000,45.000000 1130.000000,44.999847 1130.017822,45.354889 
	C1131.025024,46.140392 1132.014160,46.570850 1133.001709,47.000656 
	C1133.000000,47.000000 1132.999878,46.996719 1133.011963,47.342163 
	C1138.018921,51.126888 1143.013672,54.566166 1148.004272,58.002647 
	C1148.000000,57.999847 1147.993164,57.991962 1148.066040,58.242088 
	C1148.429565,58.664963 1148.720215,58.837711 1149.005371,59.005608 
	C1149.000000,59.000759 1148.990601,58.989857 1149.021484,59.329613 
	C1151.703369,61.781143 1154.354370,63.892925 1157.002686,66.002350 
	C1157.000000,66.000000 1156.993652,65.995285 1157.140991,66.266815 
	C1157.863403,66.694855 1158.438599,66.851364 1159.006836,67.004272 
	C1159.000000,67.000664 1158.990479,66.989006 1158.994629,67.338371 
	C1161.335571,69.795052 1163.672485,71.902367 1166.004639,74.004791 
	C1166.000000,73.999893 1165.988525,73.991699 1166.113037,74.302704 
	C1171.451050,80.175148 1176.591187,85.808342 1181.919189,91.257797 
	C1183.703979,93.083305 1185.967773,94.440315 1188.006226,96.005112 
	C1187.999756,95.998749 1187.990479,95.983147 1187.975586,96.294281 
	C1188.308228,97.071465 1188.655640,97.537514 1189.001465,98.001778 
	C1189.000000,98.000000 1188.998169,97.996292 1189.019775,98.338837 
	C1190.029541,99.455757 1191.017456,100.230125 1192.002686,101.002197 
	C1192.000000,100.999901 1191.995117,100.993820 1192.065430,101.245667 
	C1192.426880,101.667770 1192.717896,101.838036 1193.004395,102.004227 
	C1193.000000,102.000153 1192.993774,101.989937 1192.966309,102.354462 
	C1193.963257,103.816528 1194.987549,104.914062 1196.005859,106.005287 
	C1196.000000,105.998978 1195.990112,105.984688 1195.989136,106.313828 
	C1196.661621,107.432602 1197.335083,108.222237 1198.004150,109.006241 
	C1198.000000,109.000626 1197.990845,108.989944 1198.014404,109.321472 
	C1199.028198,110.772713 1200.018433,111.892426 1201.004272,113.006378 
	C1201.000000,113.000618 1200.990479,112.989838 1201.020142,113.333679 
	C1202.037842,114.455849 1203.026001,115.234169 1204.007080,116.005829 
	C1204.000000,115.999153 1203.989868,115.982704 1203.965576,116.334892 
	C1204.630371,117.795647 1205.319580,118.904213 1206.004395,120.006714 
	C1206.000000,120.000633 1205.989868,119.989563 1206.027588,120.315613 
	C1206.713623,121.097565 1207.361694,121.553459 1208.004883,122.004425 
	C1208.000000,121.999504 1207.992310,121.987701 1207.963501,122.338333 
	C1208.624878,123.795074 1209.314941,124.901199 1210.002441,126.003769 
	C1210.000000,126.000206 1209.994507,125.993561 1210.022705,126.322403 
	C1210.704346,127.104286 1211.357666,127.557335 1212.005493,128.004944 
	C1212.000000,127.999496 1211.991333,127.986496 1211.966553,128.346344 
	C1212.632812,129.475586 1213.323730,130.244980 1214.007324,131.006805 
	C1213.999878,130.999222 1213.988770,130.981201 1213.968140,131.351898 
	C1214.970825,133.154068 1215.994141,134.585556 1217.008545,136.007812 
	C1216.999512,135.998581 1216.986572,135.976532 1216.981201,136.289566 
	C1217.320312,137.073044 1217.665039,137.543488 1218.004883,138.006989 
	C1218.000000,138.000076 1217.990967,137.986023 1217.976929,138.336792 
	C1218.645020,139.796173 1219.327148,140.904785 1220.004639,142.006699 
	C1220.000000,141.999985 1219.988525,141.987946 1220.076172,142.232635 
	C1220.447998,142.656738 1220.732300,142.836151 1221.008423,143.007996 
	C1221.000366,143.000427 1220.989380,142.981506 1220.987061,143.292892 
	C1221.326904,144.075027 1221.668945,144.545776 1222.005493,145.008270 
	C1222.000000,145.000031 1221.990234,144.982864 1221.985107,145.294281 
	C1222.322876,146.074387 1222.665527,146.543076 1223.004150,147.005890 
	C1223.000000,147.000000 1222.992432,146.988022 1222.969971,147.367432 
	C1225.300781,152.167999 1227.654175,156.589172 1230.003784,161.005127 
	C1230.000000,160.999908 1229.993408,160.988480 1229.959961,161.382019 
	C1231.954102,166.188110 1233.981812,170.600647 1236.004883,175.006592 
	C1236.000000,174.999969 1235.992188,174.985428 1235.964355,175.389832 
	C1236.717041,178.661942 1237.430542,181.549942 1238.291260,184.393402 
	C1240.498047,191.682953 1243.012573,198.888290 1244.967163,206.243393 
	C1249.524414,223.393341 1252.078613,240.875854 1253.114502,258.592865 
	C1253.182739,259.761322 1254.346069,260.865784 1255.000000,262.000000 
	C1255.000000,501.028046 1255.000000,740.056091 1254.716064,979.843140 
	C1253.308838,992.791809 1252.300171,1004.993347 1251.037109,1017.168518 
	C1248.711670,1039.584229 1242.700073,1061.079224 1234.577393,1082.040405 
	C1233.457031,1084.931396 1232.841675,1088.017944 1231.996216,1091.007080 
	C1232.000000,1091.000000 1232.009277,1090.987061 1231.726318,1091.121582 
	C1231.292847,1091.841919 1231.142212,1092.427856 1230.995850,1093.006836 
	C1231.000000,1093.000000 1231.009399,1092.987427 1230.690430,1093.122070 
	C1227.244995,1099.842041 1224.118530,1106.427246 1220.996094,1113.006226 
	C1221.000000,1113.000000 1221.008667,1112.987793 1220.725464,1113.121460 
	C1220.292603,1113.840576 1220.143066,1114.426025 1219.996704,1115.005737 
	C1220.000000,1115.000000 1220.009033,1114.991577 1219.652710,1115.014648 
	C1218.529419,1116.694458 1217.762451,1118.351440 1216.997803,1120.004150 
	C1217.000000,1120.000000 1217.006592,1119.994263 1216.651489,1120.022339 
	C1215.527466,1121.706055 1214.758545,1123.361694 1213.994751,1125.008789 
	C1213.999878,1125.000244 1214.013306,1124.986816 1213.659180,1125.014893 
	C1212.868530,1126.031616 1212.432007,1127.020020 1211.997803,1128.004150 
	C1212.000000,1128.000000 1212.006714,1127.994141 1211.654541,1128.020264 
	C1210.870239,1129.028198 1210.438110,1130.010254 1210.002930,1130.996094 
	C1210.000000,1131.000000 1209.994263,1131.007202 1209.642822,1131.027588 
	C1208.859863,1132.034180 1208.428223,1133.020386 1207.998291,1134.003418 
	C1208.000000,1134.000000 1208.005371,1133.995728 1207.654175,1134.024536 
	C1206.866089,1135.039673 1206.429199,1136.025879 1205.996094,1137.006104 
	C1206.000000,1137.000000 1206.010376,1136.990967 1205.681396,1137.000244 
	C1204.898682,1137.676025 1204.445190,1138.342285 1203.995850,1139.004272 
	C1204.000000,1139.000000 1204.007324,1138.989624 1203.695068,1139.122070 
	C1202.252930,1141.173096 1201.123047,1143.091675 1199.996582,1145.005127 
	C1200.000000,1145.000000 1200.008301,1144.992065 1199.653931,1145.021973 
	C1198.863403,1146.039307 1198.427246,1147.026733 1197.995605,1148.007080 
	C1198.000000,1148.000000 1198.013062,1147.988770 1197.757324,1148.049561 
	C1197.335693,1148.405884 1197.169922,1148.701294 1197.002075,1148.998291 
	C1197.000000,1149.000000 1196.997314,1149.004150 1196.648682,1149.001709 
	C1193.530640,1152.670288 1190.761353,1156.341431 1187.996094,1160.006226 
	C1188.000000,1160.000000 1188.011353,1159.989990 1187.758301,1160.061279 
	C1187.333374,1160.425415 1187.161743,1160.718384 1186.994995,1161.005737 
	C1187.000000,1161.000000 1187.011353,1160.989868 1186.759399,1161.063232 
	C1186.334839,1161.428223 1186.162354,1161.719849 1185.994873,1162.005859 
	C1186.000000,1162.000000 1186.010254,1161.990479 1185.635742,1162.011230 
	C1184.503906,1163.498901 1183.746704,1164.965698 1182.806396,1166.643188 
	C1181.560425,1167.898560 1180.497681,1168.943237 1179.110352,1170.022217 
	C1178.521240,1170.373901 1178.256592,1170.691162 1177.995972,1171.004150 
	C1178.000000,1171.000000 1178.008667,1170.992554 1177.753662,1171.058838 
	C1177.330200,1171.419556 1177.161743,1171.713745 1176.996704,1172.003906 
	C1177.000000,1172.000000 1177.007935,1171.993286 1176.752930,1172.059448 
	C1176.329834,1172.419678 1176.161743,1172.713623 1175.996826,1173.003906 
	C1176.000000,1173.000000 1176.007690,1172.993530 1175.752686,1173.059326 
	C1175.329712,1173.419312 1175.161743,1173.713379 1174.996826,1174.003784 
	C1175.000000,1174.000000 1175.007446,1173.993774 1174.752930,1174.058838 
	C1174.331665,1174.417236 1174.164795,1174.710571 1173.999023,1175.001953 
	C1174.000000,1175.000000 1174.003906,1174.998779 1173.652832,1174.987305 
	C1172.201172,1176.317505 1171.100586,1177.659302 1170.000000,1179.000488 
	C1170.000000,1179.000000 1170.001221,1179.000000 1169.650269,1178.984985 
	C1168.532837,1179.979980 1167.766479,1180.989990 1166.635498,1181.962769 
	C1164.177490,1183.953857 1162.083984,1185.982056 1159.995239,1188.005127 
	C1160.000000,1188.000000 1160.013184,1187.991943 1159.703857,1187.983154 
	C1158.925293,1188.319092 1158.455933,1188.663940 1157.993164,1189.004395 
	C1158.000000,1189.000000 1158.010132,1188.989502 1157.667480,1189.024658 
	C1154.879028,1191.376343 1152.433105,1193.692871 1149.993652,1196.004639 
	C1150.000000,1196.000000 1150.010864,1195.989746 1149.678223,1196.006836 
	C1148.226074,1197.018921 1147.106567,1198.014038 1145.993530,1199.004639 
	C1146.000000,1199.000000 1146.010498,1198.989502 1145.678711,1199.010986 
	C1144.227173,1200.024536 1143.107300,1201.016724 1141.993652,1202.004395 
	C1142.000000,1202.000000 1142.010376,1201.989990 1141.677979,1202.009521 
	C1140.226685,1203.022095 1139.107788,1204.015015 1137.994507,1205.004028 
	C1138.000000,1205.000000 1138.009277,1204.991211 1137.656738,1205.012695 
	C1134.866333,1207.026123 1132.428589,1209.018066 1129.995361,1211.005005 
	C1130.000000,1211.000000 1130.012207,1210.992310 1129.636597,1210.955688 
	C1124.367310,1213.665649 1119.480103,1216.423828 1114.579102,1219.157349 
	C1073.751343,1241.927368 1029.969727,1253.572998 983.217896,1254.088989 
	C981.475464,1254.108276 979.739136,1254.683838 978.000000,1255.000000 
	C743.305298,1255.000000 508.610596,1255.000000 273.154053,1254.718262 
	C259.196106,1253.266602 245.892578,1252.796997 232.824310,1250.793335 
	C195.380661,1245.052002 160.672623,1231.782715 128.750381,1211.293213 
	C126.029999,1209.547119 122.917809,1208.411621 119.993591,1206.996216 
	C119.999580,1207.000000 120.009399,1207.009888 119.997421,1206.649658 
	C118.653320,1205.524048 117.321213,1204.758667 115.994415,1203.996582 
	C115.999741,1204.000000 116.008591,1204.008545 115.976608,1203.656006 
	C114.958725,1202.866333 113.972824,1202.429077 112.993195,1201.995850 
	C112.999474,1202.000000 113.009880,1202.010498 113.002457,1201.666504 
	C111.993599,1200.545532 110.992157,1199.768433 109.995636,1198.995728 
	C110.000557,1199.000000 110.010986,1199.007812 109.878098,1198.697266 
	C105.827019,1195.589355 101.908821,1192.791992 97.995316,1189.997314 
	C98.000000,1190.000000 98.006088,1190.008789 98.003075,1189.672607 
	C97.329247,1188.888184 96.658432,1188.439819 95.993530,1187.995728 
	C95.999451,1188.000000 96.009804,1188.010132 95.997894,1187.663818 
	C94.654488,1186.209229 93.322990,1185.100708 91.996056,1183.996094 
	C92.000618,1184.000000 92.010475,1184.006958 91.862839,1183.734619 
	C91.139763,1183.306152 90.564331,1183.150024 89.994186,1182.996826 
	C89.999466,1183.000000 90.007675,1183.008667 90.011002,1182.657959 
	C84.674553,1177.203857 79.334793,1172.100464 73.997650,1166.998535 
	C74.000259,1167.000000 74.004074,1167.005127 73.936806,1166.751465 
	C73.577278,1166.329956 73.285019,1166.162231 72.996384,1165.997192 
	C73.000000,1166.000000 73.004425,1166.007568 73.039429,1165.643188 
	C72.045631,1164.182129 71.016838,1163.085449 69.994781,1161.994751 
	C70.001518,1162.000732 70.013390,1162.014404 69.928619,1161.768921 
	C69.558563,1161.345459 69.273277,1161.167480 68.993858,1160.994751 
	C68.999725,1161.000000 69.008522,1161.012817 69.019226,1160.682617 
	C68.351143,1159.565430 67.672363,1158.778687 66.996948,1157.995972 
	C67.000305,1158.000000 67.007629,1158.007446 66.920639,1157.767334 
	C66.553337,1157.349365 66.273026,1157.171387 65.996231,1156.996704 
	C65.999733,1157.000000 66.005959,1157.006470 65.983795,1156.665527 
	C64.304214,1154.544678 62.646805,1152.764771 60.994457,1150.992188 
	C60.999519,1150.999634 61.011971,1151.012085 60.982540,1150.667969 
	C59.964844,1149.545776 58.976582,1148.767822 57.994385,1147.994873 
	C58.000450,1148.000000 58.008595,1148.013794 58.033051,1147.655640 
	C57.367542,1146.527588 56.677582,1145.757568 55.994194,1144.994141 
	C56.000771,1145.000488 56.010227,1145.016479 56.006851,1144.709229 
	C55.665707,1143.929565 55.327938,1143.456909 54.994804,1142.991943 
	C54.999439,1142.999512 55.011879,1143.011475 54.973053,1142.685791 
	C54.288654,1141.906860 53.643078,1141.453369 52.998749,1141.000000 
	C53.000000,1141.000000 53.000446,1141.002075 53.019760,1140.694092 
	C52.691025,1139.921753 52.342983,1139.457520 51.997463,1138.996582 
	C51.999985,1139.000000 52.005154,1139.005737 51.978859,1138.676147 
	C51.299904,1137.896606 50.647247,1137.446533 49.997372,1136.998291 
	C50.000153,1137.000000 50.003094,1137.006226 50.021702,1136.696045 
	C49.691120,1135.920532 49.341934,1135.455200 48.996262,1134.994873 
	C48.999775,1135.000000 49.008003,1135.008545 48.995522,1134.659912 
	C47.651913,1132.536011 46.320789,1130.760498 44.995354,1128.992676 
	C45.001041,1129.000122 45.013691,1129.013916 44.923195,1128.771484 
	C44.551144,1128.349121 44.269581,1128.169312 43.993835,1127.994629 
	C43.999645,1128.000000 44.008270,1128.012939 44.030731,1127.655396 
	C43.362946,1126.526245 42.672707,1125.754639 41.991467,1124.991943 
	C42.000465,1125.000732 42.013954,1125.022339 42.032814,1124.652100 
	C41.031281,1122.851685 40.010891,1121.421631 38.995399,1119.995850 
	C39.000294,1120.000000 39.006840,1120.011230 39.036072,1119.638428 
	C37.709518,1116.843750 36.353737,1114.421875 34.998978,1112.000000 
	C35.000000,1112.000000 35.000435,1112.001099 34.984344,1111.639282 
	C32.975307,1107.846558 30.982365,1104.415649 28.994217,1100.991943 
	C28.999014,1100.999146 29.008547,1101.013062 29.020256,1100.643311 
	C28.018772,1098.178101 27.005577,1096.082520 25.996172,1093.993408 
	C25.999962,1094.000000 26.008427,1094.012085 26.013325,1093.633057 
	C24.013390,1089.171509 22.008558,1085.088989 20.001751,1081.003174 
	C19.999773,1081.000000 19.995485,1080.993774 20.039179,1080.591553 
	C19.756968,1078.745972 19.594706,1077.241577 19.081110,1075.868408 
	C7.481067,1044.854614 2.762449,1012.623230 1.926929,979.689819 
	C1.895546,978.452881 1.321273,977.229614 0.999995,976.000000 
M574.008179,399.473907 
	C543.970398,378.227417 509.961151,369.048004 473.764374,366.964264 
	C429.601654,364.422058 387.343018,373.438080 346.437256,389.374054 
	C301.102692,407.035400 259.911194,431.888672 222.373352,462.752014 
	C206.909409,475.466339 192.127655,488.980042 181.247513,506.079254 
	C163.130829,534.551392 176.325989,571.482300 208.111847,580.085144 
	C215.652237,582.125977 223.918762,581.921631 231.853577,581.944275 
	C239.794159,581.966919 242.043610,582.989136 244.044266,590.546997 
	C247.529770,603.714111 251.059601,616.873718 254.255829,630.112488 
	C272.220062,704.520264 290.090576,778.950623 307.992188,853.373474 
	C309.960999,861.558594 309.554535,862.148560 301.703369,865.011658 
	C291.003723,868.913513 280.681610,873.518250 273.067383,882.483459 
	C252.703461,906.460510 258.919067,947.017212 285.783661,965.969055 
	C295.770935,973.014648 307.002686,977.096680 318.751587,979.791870 
	C351.225037,987.240967 384.077576,987.873962 417.130432,985.046570 
	C467.462097,980.741150 515.428833,967.936707 560.758545,945.515686 
	C598.787415,926.705750 633.107239,902.848755 660.525085,870.128357 
	C702.163086,820.437378 714.153137,764.371521 694.016174,702.437927 
	C676.908447,649.820801 640.803772,618.150452 586.072815,608.429321 
	C577.829590,606.965271 569.383850,606.641846 560.384583,605.724792 
	C561.772034,604.010986 562.768127,602.744629 563.801514,601.509338 
	C580.180908,581.930664 595.578247,561.654907 606.698730,538.526367 
	C617.489258,516.084229 623.676697,492.705353 619.403687,467.538361 
	C614.455139,438.393341 597.849304,416.932465 574.008179,399.473907 
M721.055542,531.512024 
	C716.122192,565.362854 713.441833,599.410706 713.383728,633.599854 
	C713.261841,705.361816 721.418152,776.267334 736.768738,846.339722 
	C741.763489,869.139526 747.485901,891.785034 758.150391,912.758179 
	C766.276917,928.740112 777.201721,942.053528 794.557739,948.846313 
	C838.504272,966.046204 880.099731,933.876892 873.093811,887.492615 
	C870.370911,869.464844 865.463501,851.766663 861.541809,833.920410 
	C857.677490,816.335693 853.801208,798.753662 849.930237,781.170410 
	C852.290710,781.864685 853.689453,782.980042 855.028748,784.162659 
	C895.272522,819.696411 936.814819,853.585754 981.405334,883.586792 
	C1003.810486,898.661255 1026.663452,912.992920 1051.651123,923.529968 
	C1067.138672,930.060913 1083.065063,934.783508 1100.135376,933.484436 
	C1142.191528,930.283997 1166.561646,888.880371 1163.458984,854.208557 
	C1160.971680,826.413330 1146.319702,806.246948 1122.632202,792.681030 
	C1106.041260,783.179260 1088.915161,774.573486 1071.780640,766.066101 
	C1025.794678,743.234009 980.690247,718.858154 937.643738,690.803284 
	C932.574890,687.499878 927.621338,684.019592 922.606567,680.616028 
	C941.547668,668.514038 960.252197,657.019653 978.483765,644.818604 
	C1015.320007,620.166687 1051.472534,594.567810 1083.532715,563.719971 
	C1096.971069,550.789856 1108.990601,536.601746 1114.967041,518.641846 
	C1125.116455,488.141846 1117.791748,460.027588 1100.724731,434.146790 
	C1086.314453,412.294678 1062.430542,404.498962 1037.230103,411.821075 
	C1020.278687,416.746338 1005.929993,426.280029 993.907288,438.576050 
	C960.019836,473.233978 926.781799,508.528046 893.388733,543.667297 
	C883.315186,554.267578 873.571838,565.181763 863.677307,575.952148 
	C862.512146,573.434448 862.175903,571.171387 862.567627,569.042236 
	C864.823059,556.783386 867.032898,544.509094 869.663757,532.327637 
	C875.872070,503.581757 882.483459,474.922333 888.599670,446.157318 
	C893.833191,421.543152 891.003967,398.261688 876.464661,376.932953 
	C851.070435,339.680420 798.255432,337.815521 770.551514,373.352478 
	C760.918945,385.708557 754.446533,399.763519 748.734253,414.191406 
	C733.899353,451.660706 726.600159,490.930664 721.055542,531.512024 
M371.555847,293.112183 
	C373.850708,284.444244 376.425079,275.838287 378.364166,267.091461 
	C380.427460,257.784241 381.591522,248.306732 378.040466,239.044952 
	C372.188934,223.783035 355.784027,220.581940 345.051514,232.813034 
	C341.713104,236.617569 338.872375,241.169891 336.945160,245.849899 
	C326.404907,271.445374 325.758179,298.007172 330.203583,324.918365 
	C330.653900,327.644440 331.781555,330.399445 333.177521,332.802582 
	C337.686157,340.564240 346.068420,341.716217 352.434448,335.308075 
	C354.967834,332.757965 357.290009,329.647278 358.658752,326.355377 
	C363.117859,315.630829 367.092621,304.704926 371.555847,293.112183 
M217.629578,306.838318 
	C228.549667,325.441956 242.665665,341.266724 259.516937,354.654449 
	C262.222443,356.803864 265.299896,358.663696 268.481171,360.001770 
	C277.467316,363.781525 285.293152,358.453857 284.953003,348.695709 
	C284.815826,344.759644 283.981171,340.726135 282.750519,336.970764 
	C277.064697,319.619965 269.080353,303.313477 257.971497,288.835419 
	C253.000000,282.356079 246.925232,276.377167 240.318390,271.599213 
	C234.118881,267.115845 226.401703,266.769531 219.638229,271.434601 
	C212.949799,276.047882 210.549332,283.005554 212.010040,290.734985 
	C213.011276,296.033020 215.439713,301.061371 217.629578,306.838318 
M159.388489,409.392853 
	C161.860153,409.647034 164.342667,410.190979 166.801392,410.099152 
	C173.275558,409.857269 179.762939,409.562805 186.202591,408.885590 
	C200.748535,407.355988 215.287079,405.722717 229.790176,403.836090 
	C235.153824,403.138336 239.628326,400.580505 241.103241,394.767029 
	C242.598602,388.872925 239.374100,384.922302 235.254990,381.480194 
	C233.993164,380.425751 232.514389,379.602783 231.060287,378.810913 
	C214.408310,369.742584 196.558380,367.224457 177.942398,369.426727 
	C168.129059,370.587646 158.554276,372.776794 150.542496,379.078979 
	C139.377670,387.861420 141.279953,402.178406 154.304626,407.805389 
	C155.669983,408.395264 157.142441,408.737244 159.388489,409.392853 
z"/>
<path fill="#000000" opacity="1.000000" stroke="none" 
	d="
M1179.434937,1169.988037 
	C1180.497681,1168.943237 1181.560425,1167.898560 1183.073120,1166.400146 
	C1184.352051,1164.627686 1185.181152,1163.309082 1186.010254,1161.990479 
	C1186.010254,1161.990479 1186.000000,1162.000000 1186.234253,1161.915161 
	C1186.649536,1161.550171 1186.830444,1161.270020 1187.011353,1160.989868 
	C1187.011353,1160.989868 1187.000000,1161.000000 1187.234375,1160.915405 
	C1187.649780,1160.550537 1187.830566,1160.270264 1188.011353,1159.989990 
	C1188.011353,1159.989990 1188.000000,1160.000000 1188.303101,1159.872559 
	C1191.403198,1156.164795 1194.200317,1152.584473 1196.997314,1149.004150 
	C1196.997314,1149.004150 1197.000000,1149.000000 1197.243896,1148.918213 
	C1197.662842,1148.553955 1197.838013,1148.271362 1198.013184,1147.988770 
	C1198.013062,1147.988770 1198.000000,1148.000000 1198.289307,1147.867432 
	C1199.055176,1146.820557 1199.531738,1145.906250 1200.008301,1144.992065 
	C1200.008301,1144.992065 1200.000000,1145.000000 1200.319092,1144.884766 
	C1201.761230,1142.842896 1202.884277,1140.916260 1204.007324,1138.989624 
	C1204.007324,1138.989624 1204.000000,1139.000000 1204.324829,1138.992188 
	C1205.103271,1138.319946 1205.556885,1137.655518 1206.010376,1136.990967 
	C1206.010376,1136.990967 1206.000000,1137.000000 1206.292725,1136.874268 
	C1207.058838,1135.830933 1207.532104,1134.913330 1208.005371,1133.995728 
	C1208.005371,1133.995728 1208.000000,1134.000000 1208.300781,1133.886963 
	C1209.065918,1132.851807 1209.530029,1131.929443 1209.994263,1131.007202 
	C1209.994263,1131.007202 1210.000000,1131.000000 1210.310913,1130.890625 
	C1211.083496,1129.852295 1211.545166,1128.923218 1212.006836,1127.994141 
	C1212.006714,1127.994141 1212.000000,1128.000000 1212.300537,1127.883789 
	C1213.071655,1126.840698 1213.542480,1125.913696 1214.013306,1124.986816 
	C1214.013306,1124.986816 1213.999878,1125.000244 1214.297119,1124.857910 
	C1215.398438,1123.141846 1216.202515,1121.567993 1217.006592,1119.994263 
	C1217.006592,1119.994263 1217.000000,1120.000000 1217.310059,1119.874390 
	C1218.416382,1118.163086 1219.212646,1116.577271 1220.009033,1114.991577 
	C1220.009033,1114.991577 1220.000000,1115.000000 1220.260254,1114.850830 
	C1220.683228,1114.130371 1220.845947,1113.559082 1221.008667,1112.987793 
	C1221.008667,1112.987793 1221.000000,1113.000000 1221.310913,1112.864502 
	C1224.750977,1106.148560 1227.880127,1099.567993 1231.009277,1092.987427 
	C1231.009399,1092.987427 1231.000000,1093.000000 1231.268066,1092.861572 
	C1231.693848,1092.144531 1231.851562,1091.565796 1232.009277,1090.987061 
	C1232.009277,1090.987061 1232.000000,1091.000000 1232.285156,1090.811035 
	C1236.040405,1081.324829 1239.882202,1072.146362 1242.897461,1062.703857 
	C1247.978394,1046.793213 1251.920898,1030.592773 1253.120117,1013.834656 
	C1253.190552,1012.850037 1254.348267,1011.943115 1255.000000,1011.000000 
	C1255.000000,1092.259644 1255.000000,1173.519165 1255.000000,1255.000000 
	C1175.645874,1255.000000 1096.291626,1255.000000 1016.523438,1254.605347 
	C1016.947449,1253.820435 1017.748169,1253.242798 1018.628723,1253.068604 
	C1029.648315,1250.890259 1040.763062,1249.125610 1051.689575,1246.557861 
	C1071.519165,1241.898193 1090.169434,1233.927246 1108.206787,1224.643066 
	C1115.804565,1220.732422 1122.763062,1215.580200 1130.012207,1210.992310 
	C1130.012207,1210.992310 1130.000000,1211.000000 1130.348389,1210.975098 
	C1133.134277,1208.963867 1135.571777,1206.977539 1138.009277,1204.991211 
	C1138.009277,1204.991211 1138.000000,1205.000000 1138.361328,1205.034424 
	C1139.818604,1204.042603 1140.914429,1203.016357 1142.010376,1201.989990 
	C1142.010376,1201.989990 1142.000000,1202.000000 1142.361328,1202.033203 
	C1143.818481,1201.040771 1144.914429,1200.015137 1146.010498,1198.989502 
	C1146.010498,1198.989502 1146.000000,1199.000000 1146.359375,1199.032593 
	C1147.816040,1198.040039 1148.913452,1197.014893 1150.010864,1195.989746 
	C1150.010864,1195.989746 1150.000000,1196.000000 1150.359375,1196.024292 
	C1153.149292,1193.695557 1155.579712,1191.342529 1158.010132,1188.989502 
	C1158.010132,1188.989502 1158.000000,1189.000000 1158.304077,1189.024292 
	C1159.076538,1188.696411 1159.544800,1188.344116 1160.013184,1187.991943 
	C1160.013184,1187.991943 1160.000000,1188.000000 1160.340698,1187.988770 
	C1162.787598,1185.984985 1164.893799,1183.992432 1167.340576,1181.981323 
	C1168.454468,1180.975098 1169.227783,1179.987549 1170.001221,1179.000000 
	C1170.001221,1179.000000 1170.000000,1179.000000 1170.342407,1178.975098 
	C1171.791138,1177.633179 1172.897583,1176.315918 1174.003906,1174.998779 
	C1174.003906,1174.998779 1174.000000,1175.000000 1174.240234,1174.918701 
	C1174.656250,1174.556274 1174.831909,1174.275024 1175.007568,1173.993774 
	C1175.007446,1173.993774 1175.000000,1174.000000 1175.238892,1173.919800 
	C1175.654419,1173.557617 1175.831055,1173.275513 1176.007690,1172.993530 
	C1176.007690,1172.993530 1176.000000,1173.000000 1176.238403,1172.919189 
	C1176.653809,1172.556519 1176.830811,1172.274902 1177.007935,1171.993286 
	C1177.007935,1171.993286 1177.000000,1172.000000 1177.238037,1171.918579 
	C1177.653442,1171.555664 1177.831055,1171.274048 1178.008667,1170.992554 
	C1178.008667,1170.992554 1178.000000,1171.000000 1178.273926,1170.897949 
	C1178.843628,1170.526611 1179.139282,1170.257324 1179.434937,1169.988037 
z"/>
<path fill="#000000" opacity="1.000000" stroke="none" 
	d="
M68.974274,96.339508 
	C68.883598,96.511063 68.767601,96.663322 68.190926,96.927933 
	C67.499725,97.376961 67.243881,97.694359 66.988029,98.011749 
	C66.988029,98.011749 66.999580,98.000778 66.657806,97.996384 
	C65.207863,99.330391 64.099693,100.668800 62.991516,102.007210 
	C62.991520,102.007210 63.000217,101.999893 62.692986,102.109833 
	C61.920666,103.150772 61.455585,104.081764 60.990505,105.012764 
	C60.990505,105.012764 61.000080,105.000534 60.663666,105.013382 
	C59.548180,106.020332 58.769108,107.014442 57.990044,108.008545 
	C57.990044,108.008553 58.000198,107.999802 57.693672,108.130203 
	C54.921471,111.843285 52.455799,115.425972 49.990128,119.008659 
	C49.990128,119.008659 50.000156,118.999863 49.705555,119.124344 
	C48.936733,120.169746 48.462509,121.090668 47.988289,122.011589 
	C47.988289,122.011589 48.000172,121.999725 47.705513,122.119301 
	C46.938335,123.161194 46.465813,124.083511 45.993286,125.005821 
	C45.993286,125.005821 46.000156,125.000000 45.700439,125.116058 
	C44.930679,126.157692 44.460629,127.083260 43.990582,128.008835 
	C43.990582,128.008835 44.000217,127.999825 43.685677,128.135529 
	C42.911247,129.518356 42.451359,130.765472 41.991470,132.012604 
	C41.991474,132.012604 42.000568,132.000000 41.754005,132.065216 
	C41.334793,132.423538 41.162140,132.716644 40.989487,133.009766 
	C40.989487,133.009766 40.999809,133.000137 40.699158,133.112061 
	C39.928131,134.153427 39.457752,135.082870 38.987373,136.012329 
	C38.987373,136.012329 39.000187,135.999481 38.744621,136.151428 
	C38.323421,136.872528 38.157787,137.441681 37.992157,138.010818 
	C37.992161,138.010818 38.000000,138.000031 37.700401,138.111435 
	C36.931442,139.150665 36.462090,140.078476 35.992737,141.006302 
	C35.992737,141.006302 36.000240,140.999969 35.733101,141.143875 
	C35.307152,141.863510 35.148342,142.439240 34.989532,143.014969 
	C34.989529,143.014969 35.000053,143.000000 34.746933,143.154358 
	C34.325829,143.877380 34.157837,144.446030 33.989853,145.014679 
	C33.989853,145.014679 34.000008,145.000000 33.738201,145.144745 
	C33.314598,145.863998 33.152805,146.438538 32.991013,147.013062 
	C32.991013,147.013062 33.000038,147.000061 32.684311,147.125580 
	C30.242294,151.838745 28.116003,156.426422 25.989712,161.014084 
	C25.989708,161.014084 26.000162,160.999954 25.741417,161.148621 
	C25.318506,161.869446 25.154341,162.441574 24.990173,163.013718 
	C24.990173,163.013718 24.999998,163.000015 24.744987,163.152954 
	C24.323277,163.875229 24.156574,164.444534 23.989872,165.013855 
	C23.989872,165.013855 23.999989,165.000000 23.719513,165.193115 
	C22.958132,166.925354 22.477224,168.464478 21.996315,170.003601 
	C21.996313,170.003601 22.000076,170.000000 21.698322,170.176102 
	C20.090956,173.573242 18.671581,176.753464 17.498587,180.022079 
	C10.940978,198.295319 5.875588,216.923813 3.813107,236.309326 
	C3.497854,239.272446 1.968062,242.106339 1.000002,245.000000 
	C1.000000,163.740234 1.000000,82.480469 1.000000,1.000000 
	C80.687424,1.000000 160.375061,1.000000 240.472534,1.396873 
	C240.374847,2.161834 239.911896,2.754195 239.353271,2.865200 
	C225.609070,5.596320 211.796265,8.016579 198.130692,11.092126 
	C192.584091,12.340430 187.354111,14.995510 181.980057,17.010477 
	C181.980057,17.010477 181.999741,17.000122 181.616302,16.987274 
	C177.007645,18.419466 172.613495,19.504345 168.594635,21.389315 
	C161.604294,24.667974 154.845612,28.440533 147.989807,32.006023 
	C147.989807,32.006023 148.000031,32.000000 147.697937,31.997162 
	C146.925827,32.332211 146.455795,32.670101 145.985779,33.007996 
	C145.985779,33.007996 145.999649,33.000214 145.641785,33.013973 
	C141.188339,35.685528 137.092789,38.343319 132.997223,41.001110 
	C132.997223,41.001110 133.000000,41.000000 132.650391,40.951801 
	C131.197617,41.604080 130.094437,42.304554 128.991257,43.005028 
	C128.991257,43.005028 129.000000,43.000179 128.644638,43.010815 
	C123.188072,46.683949 118.086868,50.346447 112.985672,54.008949 
	C112.985672,54.008949 112.999733,54.000145 112.671051,54.019264 
	C111.893356,54.693443 111.444344,55.348499 110.995323,56.003555 
	C110.995323,56.003555 111.000000,56.000000 110.693283,55.975723 
	C109.919273,56.303898 109.451981,56.656353 108.984688,57.008808 
	C108.984688,57.008808 108.999435,57.000187 108.654984,57.020912 
	C105.203766,60.031128 102.097000,63.020618 98.990242,66.010109 
	C98.990242,66.010109 99.000710,66.000061 98.694672,65.968231 
	C97.920708,66.293877 97.452782,66.651344 96.984863,67.008804 
	C96.984863,67.008812 96.999451,67.000259 96.661819,67.027771 
	C94.067688,69.040619 91.811188,71.025963 89.554680,73.011307 
	C89.421822,73.117310 89.296997,73.232048 88.774826,73.621658 
	C83.914612,78.589897 79.459793,83.292007 75.004982,87.994125 
	C75.004982,87.994125 74.999695,88.000046 74.716049,88.136490 
	C74.287849,88.848518 74.143303,89.424103 73.998749,89.999680 
	C73.998749,89.999680 74.000000,90.000000 73.638916,89.976540 
	C71.843315,92.081886 70.408791,94.210701 68.974274,96.339508 
z"/>
<path fill="#000000" opacity="1.000000" stroke="none" 
	d="
M241.000000,1255.000000 
	C161.072357,1255.000000 81.144722,1255.000000 1.000000,1255.000000 
	C1.000000,1173.979248 1.000000,1092.958252 1.393995,1011.528809 
	C2.171890,1011.790710 2.782431,1012.421875 2.905940,1013.137146 
	C5.012000,1025.332886 6.361928,1037.711182 9.324592,1049.691528 
	C11.961145,1060.353271 16.369240,1070.576782 19.995483,1080.993774 
	C19.995485,1080.993774 19.999773,1081.000000 19.983206,1081.388428 
	C21.980570,1085.855225 23.994501,1089.933716 26.008430,1094.012085 
	C26.008427,1094.012085 25.999962,1094.000000 25.969280,1094.375854 
	C26.961910,1096.838867 27.985222,1098.925903 29.008541,1101.013062 
	C29.008547,1101.013062 28.999014,1100.999146 28.987259,1101.371338 
	C30.983816,1105.162842 32.992134,1108.581909 35.000443,1112.001099 
	C35.000435,1112.001099 35.000000,1112.000000 34.955704,1112.372192 
	C36.276554,1115.166626 37.641701,1117.588989 39.006844,1120.011230 
	C39.006840,1120.011230 39.000294,1120.000000 39.015671,1120.338745 
	C40.025345,1122.125732 41.019638,1123.574097 42.013939,1125.022339 
	C42.013954,1125.022339 42.000465,1125.000732 42.022495,1125.315674 
	C42.699104,1126.424805 43.353680,1127.218872 44.008263,1128.012939 
	C44.008270,1128.012939 43.999645,1128.000000 44.086357,1128.234619 
	C44.453274,1128.650757 44.733471,1128.832397 45.013680,1129.013916 
	C45.013691,1129.013916 45.001041,1129.000122 44.981255,1129.359863 
	C46.310307,1131.482666 47.659142,1133.245605 49.007988,1135.008545 
	C49.008003,1135.008545 48.999775,1135.000000 48.990532,1135.302734 
	C49.321880,1136.072510 49.662472,1136.539429 50.003078,1137.006226 
	C50.003094,1137.006226 50.000153,1137.000000 50.019871,1137.328369 
	C50.694767,1138.106445 51.349949,1138.556152 52.005142,1139.005737 
	C52.005154,1139.005737 51.999985,1139.000000 51.973114,1139.307617 
	C52.297646,1140.077515 52.649052,1140.539795 53.000450,1141.002075 
	C53.000446,1141.002075 53.000000,1141.000000 53.023380,1141.327148 
	C53.701794,1142.106812 54.356823,1142.559204 55.011864,1143.011475 
	C55.011879,1143.011475 54.999439,1142.999512 54.987560,1143.301758 
	C55.320526,1144.074707 55.665371,1144.545654 56.010223,1145.016479 
	C56.010227,1145.016479 56.000771,1145.000488 56.013603,1145.318115 
	C56.687153,1146.428467 57.347866,1147.221069 58.008587,1148.013794 
	C58.008595,1148.013794 58.000450,1148.000000 58.025681,1148.336060 
	C59.037926,1149.452148 60.024944,1150.232056 61.011971,1151.012085 
	C61.011971,1151.012085 60.999519,1150.999634 60.976631,1151.358765 
	C62.637817,1153.480713 64.321892,1155.243652 66.005966,1157.006470 
	C66.005959,1157.006470 65.999733,1157.000000 66.065796,1157.249390 
	C66.423775,1157.668335 66.715698,1157.837891 67.007629,1158.007446 
	C67.007629,1158.007446 67.000305,1158.000000 66.983360,1158.325928 
	C67.647110,1159.438965 68.327805,1160.225830 69.008514,1161.012817 
	C69.008522,1161.012817 68.999725,1161.000000 69.090263,1161.230957 
	C69.458336,1161.646118 69.735863,1161.830322 70.013390,1162.014404 
	C70.013390,1162.014404 70.001518,1162.000732 70.015953,1162.328247 
	C71.021729,1163.773071 72.013069,1164.890259 73.004417,1166.007568 
	C73.004425,1166.007568 73.000000,1166.000000 73.081879,1166.237549 
	C73.443871,1166.651733 73.723984,1166.828369 74.004082,1167.005127 
	C74.004074,1167.005127 74.000259,1167.000000 74.023560,1167.343018 
	C79.367134,1172.793457 84.687408,1177.901123 90.007683,1183.008667 
	C90.007675,1183.008667 89.999466,1183.000000 90.142914,1183.267822 
	C90.861076,1183.692749 91.435791,1183.849854 92.010490,1184.006836 
	C92.010475,1184.006958 92.000618,1184.000000 92.001419,1184.344727 
	C93.338089,1185.796265 94.673950,1186.903198 96.009811,1188.010132 
	C96.009804,1188.010132 95.999451,1188.000000 96.095009,1188.276367 
	C96.795746,1189.037964 97.400917,1189.523438 98.006088,1190.008789 
	C98.006088,1190.008789 98.000000,1190.000000 98.124527,1190.307495 
	C102.169701,1193.412598 106.090347,1196.210205 110.010994,1199.007812 
	C110.010986,1199.007812 110.000557,1199.000000 109.999573,1199.341553 
	C111.002357,1200.458984 112.006126,1201.234741 113.009888,1202.010498 
	C113.009880,1202.010498 112.999474,1202.000000 113.127853,1202.291504 
	C114.173676,1203.058105 115.091125,1203.533325 116.008591,1204.008545 
	C116.008591,1204.008545 115.999741,1204.000000 116.123413,1204.301758 
	C117.501183,1205.405640 118.755287,1206.207764 120.009392,1207.009888 
	C120.009399,1207.009888 119.999580,1207.000000 120.136810,1207.305420 
	C120.733116,1208.090332 121.119926,1208.680908 121.661568,1209.033691 
	C157.268631,1232.230225 195.552628,1248.344727 238.144211,1253.115356 
	C239.153870,1253.228271 240.050598,1254.349121 241.000000,1255.000000 
z"/>
<path fill="#000000" opacity="1.000000" stroke="none" 
	d="
M1014.000000,1.000004 
	C1094.260986,1.000000 1174.521973,1.000000 1255.000000,1.000000 
	C1255.000000,82.354095 1255.000000,163.708389 1254.603760,245.465439 
	C1253.847656,245.356186 1253.255981,244.883362 1253.161865,244.326416 
	C1251.071289,231.967209 1249.740723,219.426910 1246.781250,207.282837 
	C1244.103027,196.293274 1239.658081,185.734299 1235.992188,174.985443 
	C1235.992188,174.985428 1236.000000,174.999969 1236.017334,174.617935 
	C1234.020996,169.820084 1232.007202,165.404266 1229.993408,160.988464 
	C1229.993408,160.988480 1230.000000,160.999908 1230.006470,160.626785 
	C1227.672729,155.831787 1225.332520,151.409912 1222.992432,146.988037 
	C1222.992432,146.988022 1223.000000,147.000000 1222.996826,146.700562 
	C1222.659180,145.928391 1222.324707,145.455643 1221.990234,144.982880 
	C1221.990234,144.982864 1222.000000,145.000031 1221.992920,144.703110 
	C1221.653687,143.931290 1221.321533,143.456390 1220.989380,142.981506 
	C1220.989380,142.981506 1221.000366,143.000427 1220.915894,142.766434 
	C1220.550415,142.350937 1220.269531,142.169434 1219.988525,141.987946 
	C1219.988525,141.987946 1220.000000,141.999985 1220.018433,141.656097 
	C1219.354858,140.203491 1218.672974,139.094757 1217.990967,137.986023 
	C1217.990967,137.986023 1218.000000,138.000076 1217.997803,137.701263 
	C1217.659302,136.927155 1217.322998,136.451843 1216.986572,135.976532 
	C1216.986572,135.976532 1216.999512,135.998581 1216.973145,135.666031 
	C1215.960693,133.882721 1214.974731,132.431961 1213.988770,130.981201 
	C1213.988770,130.981201 1213.999878,130.999222 1213.983154,130.682587 
	C1213.307983,129.572800 1212.649658,128.779663 1211.991333,127.986504 
	C1211.991333,127.986496 1212.000000,127.999496 1211.972290,127.676514 
	C1211.294556,126.900230 1210.644531,126.446915 1209.994507,125.993576 
	C1209.994507,125.993561 1210.000000,126.000206 1210.041016,125.653053 
	C1209.385498,124.199837 1208.688843,123.093773 1207.992310,121.987701 
	C1207.992310,121.987701 1208.000000,121.999504 1207.970215,121.678093 
	C1207.290283,120.900978 1206.640015,120.445274 1205.989868,119.989571 
	C1205.989868,119.989563 1206.000000,120.000633 1206.036621,119.656525 
	C1205.378784,118.202499 1204.684326,117.092598 1203.989868,115.982697 
	C1203.989868,115.982704 1204.000000,115.999153 1203.972168,115.665390 
	C1202.959717,114.551025 1201.975098,113.770424 1200.990479,112.989830 
	C1200.990479,112.989838 1201.000000,113.000618 1201.030762,112.640793 
	C1200.037964,111.183960 1199.014404,110.086967 1197.990845,108.989960 
	C1197.990845,108.989944 1198.000000,109.000626 1198.011719,108.676064 
	C1197.345703,107.562569 1196.667969,106.773628 1195.990112,105.984688 
	C1195.990112,105.984688 1196.000000,105.998978 1195.976562,105.673668 
	C1194.966675,104.228889 1193.980225,103.109413 1192.993774,101.989937 
	C1192.993774,101.989937 1193.000000,102.000153 1192.917969,101.763763 
	C1192.555786,101.349510 1192.275391,101.171661 1191.995117,100.993813 
	C1191.995117,100.993820 1192.000000,100.999901 1191.980713,100.658783 
	C1190.973633,99.543861 1189.985840,98.770065 1188.998169,97.996284 
	C1188.998169,97.996292 1189.000000,98.000000 1189.019409,97.693909 
	C1188.689331,96.919586 1188.339966,96.451363 1187.990479,95.983139 
	C1187.990479,95.983147 1187.999756,95.998749 1187.966553,95.660805 
	C1181.823242,88.617767 1175.759766,81.868744 1169.543701,75.263535 
	C1168.775513,74.447311 1167.193359,74.396965 1165.988525,73.991692 
	C1165.988525,73.991699 1166.000000,73.999893 1165.997437,73.655182 
	C1163.660034,71.203308 1161.325317,69.096161 1158.990479,66.989006 
	C1158.990479,66.989006 1159.000000,67.000664 1158.853760,66.736877 
	C1158.136108,66.313835 1157.564941,66.154572 1156.993652,65.995293 
	C1156.993652,65.995285 1157.000000,66.000000 1157.008789,65.650124 
	C1154.341919,63.196774 1151.666260,61.093300 1148.990601,58.989845 
	C1148.990601,58.989857 1149.000000,59.000759 1148.917725,58.765129 
	C1148.554810,58.350327 1148.273926,58.171150 1147.993164,57.991970 
	C1147.993164,57.991962 1148.000000,57.999847 1147.881104,57.687893 
	C1142.841431,53.916191 1137.920654,50.456448 1132.999878,46.996712 
	C1132.999878,46.996719 1133.000000,47.000000 1132.880127,46.700409 
	C1131.840210,45.933826 1130.920166,45.466831 1130.000000,44.999844 
	C1130.000000,44.999847 1130.000000,45.000000 1129.877930,44.698570 
	C1128.833740,43.927719 1127.911621,43.458294 1126.989624,42.988876 
	C1126.989624,42.988884 1127.000000,43.000492 1126.856934,42.698757 
	C1126.211548,41.966450 1125.753784,41.465309 1125.200562,41.115513 
	C1105.157104,28.443304 1083.931152,18.169130 1061.021973,12.040751 
	C1046.530029,8.164068 1031.596069,5.945970 1016.880615,2.886456 
	C1015.834839,2.669027 1014.956299,1.647590 1014.000000,1.000004 
z"/>
<path fill="#292929" opacity="1.000000" stroke="none" 
	d="
M241.468658,1255.000000 
	C240.050598,1254.349121 239.153870,1253.228271 238.144211,1253.115356 
	C195.552628,1248.344727 157.268631,1232.230225 121.661568,1209.033691 
	C121.119926,1208.680908 120.733116,1208.090332 120.130829,1207.301636 
	C122.917809,1208.411621 126.029999,1209.547119 128.750381,1211.293213 
	C160.672623,1231.782715 195.380661,1245.052002 232.824310,1250.793335 
	C245.892578,1252.796997 259.196106,1253.266602 272.696106,1254.718262 
	C262.645782,1255.000000 252.291550,1255.000000 241.468658,1255.000000 
z"/>
<path fill="#292928" opacity="1.000000" stroke="none" 
	d="
M1013.531372,1.000004 
	C1014.956299,1.647590 1015.834839,2.669027 1016.880615,2.886456 
	C1031.596069,5.945970 1046.530029,8.164068 1061.021973,12.040751 
	C1083.931152,18.169130 1105.157104,28.443304 1125.200562,41.115513 
	C1125.753784,41.465309 1126.211548,41.966450 1126.863770,42.702656 
	C1125.322388,42.444271 1123.468506,42.157269 1121.964722,41.273952 
	C1104.449097,30.984859 1086.387939,21.845438 1067.012207,15.583894 
	C1048.698242,9.665457 1030.040161,5.276548 1010.755371,3.966287 
	C999.701172,3.215231 988.653015,2.373780 977.301086,1.286512 
	C989.020874,1.000000 1001.041809,1.000000 1013.531372,1.000004 
z"/>
<path fill="#2A2A2A" opacity="1.000000" stroke="none" 
	d="
M1129.636597,1210.955688 
	C1122.763062,1215.580200 1115.804565,1220.732422 1108.206787,1224.643066 
	C1090.169434,1233.927246 1071.519165,1241.898193 1051.689575,1246.557861 
	C1040.763062,1249.125610 1029.648315,1250.890259 1018.628723,1253.068604 
	C1017.748169,1253.242798 1016.947449,1253.820435 1016.054810,1254.605347 
	C1003.645752,1255.000000 991.291565,1255.000000 978.468628,1255.000000 
	C979.739136,1254.683838 981.475464,1254.108276 983.217896,1254.088989 
	C1029.969727,1253.572998 1073.751343,1241.927368 1114.579102,1219.157349 
	C1119.480103,1216.423828 1124.367310,1213.665649 1129.636597,1210.955688 
z"/>
<path fill="#2A2A2A" opacity="1.000000" stroke="none" 
	d="
M1255.000000,1010.531372 
	C1254.348267,1011.943115 1253.190552,1012.850037 1253.120117,1013.834656 
	C1251.920898,1030.592773 1247.978394,1046.793213 1242.897461,1062.703857 
	C1239.882202,1072.146362 1236.040405,1081.324829 1232.281250,1090.817993 
	C1232.841675,1088.017944 1233.457031,1084.931396 1234.577393,1082.040405 
	C1242.700073,1061.079224 1248.711670,1039.584229 1251.037109,1017.168518 
	C1252.300171,1004.993347 1253.308838,992.791809 1254.716064,980.301086 
	C1255.000000,990.020874 1255.000000,1000.041809 1255.000000,1010.531372 
z"/>
<path fill="#272727" opacity="1.000000" stroke="none" 
	d="
M20.039177,1080.591553 
	C16.369240,1070.576782 11.961145,1060.353271 9.324592,1049.691528 
	C6.361928,1037.711182 5.012000,1025.332886 2.905940,1013.137146 
	C2.782431,1012.421875 2.171890,1011.790710 1.393995,1011.060181 
	C1.000000,999.645752 1.000000,988.291565 0.999995,976.468628 
	C1.321273,977.229614 1.895546,978.452881 1.926929,979.689819 
	C2.762449,1012.623230 7.481067,1044.854614 19.081110,1075.868408 
	C19.594706,1077.241577 19.756968,1078.745972 20.039177,1080.591553 
z"/>
<path fill="#2C2C2C" opacity="1.000000" stroke="none" 
	d="
M1.000002,245.466858 
	C1.968062,242.106339 3.497854,239.272446 3.813107,236.309326 
	C5.875588,216.923813 10.940978,198.295319 17.498587,180.022079 
	C18.671581,176.753464 20.090956,173.573242 21.699310,170.173630 
	C21.292219,172.679764 20.770271,175.431305 19.842760,178.038574 
	C12.559291,198.512848 6.908307,219.360657 4.907000,241.087982 
	C4.377670,246.834671 3.643260,252.563797 2.907458,258.288727 
	C2.795115,259.162811 2.162809,259.970032 1.385497,260.904114 
	C1.000000,255.977905 1.000000,250.955811 1.000002,245.466858 
z"/>
<path fill="#2C2C2C" opacity="1.000000" stroke="none" 
	d="
M182.385529,17.038853 
	C187.354111,14.995510 192.584091,12.340430 198.130692,11.092126 
	C211.796265,8.016579 225.609070,5.596320 239.353271,2.865200 
	C239.911896,2.754195 240.374847,2.161834 240.941193,1.396873 
	C253.020889,1.000000 265.041779,1.000000 277.531342,1.000000 
	C276.602142,1.319123 275.210571,1.885452 273.805542,1.920960 
	C244.086761,2.672027 214.876526,6.461758 186.644135,16.251701 
	C185.413483,16.678450 184.077774,16.802288 182.385529,17.038853 
z"/>
<path fill="#292928" opacity="1.000000" stroke="none" 
	d="
M1235.964355,175.389847 
	C1239.658081,185.734299 1244.103027,196.293274 1246.781250,207.282837 
	C1249.740723,219.426910 1251.071289,231.967209 1253.161865,244.326416 
	C1253.255981,244.883362 1253.847656,245.356186 1254.603760,245.934097 
	C1255.000000,251.022095 1255.000000,256.044189 1255.000000,261.533142 
	C1254.346069,260.865784 1253.182739,259.761322 1253.114502,258.592865 
	C1252.078613,240.875854 1249.524414,223.393341 1244.967163,206.243393 
	C1243.012573,198.888290 1240.498047,191.682953 1238.291260,184.393402 
	C1237.430542,181.549942 1236.717041,178.661942 1235.964355,175.389847 
z"/>
<path fill="#FDFDFD" opacity="1.000000" stroke="none" 
	d="
M574.293762,399.691528 
	C597.849304,416.932465 614.455139,438.393341 619.403687,467.538361 
	C623.676697,492.705353 617.489258,516.084229 606.698730,538.526367 
	C595.578247,561.654907 580.180908,581.930664 563.801514,601.509338 
	C562.768127,602.744629 561.772034,604.010986 560.384583,605.724792 
	C569.383850,606.641846 577.829590,606.965271 586.072815,608.429321 
	C640.803772,618.150452 676.908447,649.820801 694.016174,702.437927 
	C714.153137,764.371521 702.163086,820.437378 660.525085,870.128357 
	C633.107239,902.848755 598.787415,926.705750 560.758545,945.515686 
	C515.428833,967.936707 467.462097,980.741150 417.130432,985.046570 
	C384.077576,987.873962 351.225037,987.240967 318.751587,979.791870 
	C307.002686,977.096680 295.770935,973.014648 285.783661,965.969055 
	C258.919067,947.017212 252.703461,906.460510 273.067383,882.483459 
	C280.681610,873.518250 291.003723,868.913513 301.703369,865.011658 
	C309.554535,862.148560 309.960999,861.558594 307.992188,853.373474 
	C290.090576,778.950623 272.220062,704.520264 254.255829,630.112488 
	C251.059601,616.873718 247.529770,603.714111 244.044266,590.546997 
	C242.043610,582.989136 239.794159,581.966919 231.853577,581.944275 
	C223.918762,581.921631 215.652237,582.125977 208.111847,580.085144 
	C176.325989,571.482300 163.130829,534.551392 181.247513,506.079254 
	C192.127655,488.980042 206.909409,475.466339 222.373352,462.752014 
	C259.911194,431.888672 301.102692,407.035400 346.437256,389.374054 
	C387.343018,373.438080 429.601654,364.422058 473.764374,366.964264 
	C509.961151,369.048004 543.970398,378.227417 574.293762,399.691528 
M521.603271,793.103821 
	C523.482178,791.215088 525.452087,789.407776 527.224854,787.424194 
	C537.059570,776.419983 545.817932,764.802124 549.329224,750.016479 
	C554.596375,727.837036 543.764160,708.502502 521.554688,703.481995 
	C511.369293,701.179565 500.323822,700.692627 489.913269,701.763428 
	C462.945557,704.537109 437.878540,714.005432 413.959778,726.545776 
	C408.311676,729.506897 407.064728,732.421631 408.831116,738.847290 
	C416.702087,767.480713 424.546692,796.122681 432.672333,824.684265 
	C436.913208,839.591003 439.336304,840.759033 453.812958,835.498108 
	C479.172028,826.282227 501.429779,812.000000 521.603271,793.103821 
M366.840454,544.625061 
	C371.175476,571.456909 375.510498,598.288696 380.039307,626.319885 
	C408.234253,604.902283 432.288696,582.114136 449.440674,552.936646 
	C457.650787,538.970276 462.631165,523.932251 461.059540,507.307129 
	C459.126465,486.857910 445.765289,475.169250 425.857849,477.338318 
	C402.595886,479.872864 382.754639,490.348969 365.001587,505.075043 
	C363.539246,506.288025 362.515656,509.123688 362.711914,511.061218 
	C363.817627,521.979675 365.359009,532.854126 366.840454,544.625061 
z"/>
<path fill="#FDFDFD" opacity="1.000000" stroke="none" 
	d="
M721.117615,531.074585 
	C726.600159,490.930664 733.899353,451.660706 748.734253,414.191406 
	C754.446533,399.763519 760.918945,385.708557 770.551514,373.352478 
	C798.255432,337.815521 851.070435,339.680420 876.464661,376.932953 
	C891.003967,398.261688 893.833191,421.543152 888.599670,446.157318 
	C882.483459,474.922333 875.872070,503.581757 869.663757,532.327637 
	C867.032898,544.509094 864.823059,556.783386 862.567627,569.042236 
	C862.175903,571.171387 862.512146,573.434448 863.677307,575.952148 
	C873.571838,565.181763 883.315186,554.267578 893.388733,543.667297 
	C926.781799,508.528046 960.019836,473.233978 993.907288,438.576050 
	C1005.929993,426.280029 1020.278687,416.746338 1037.230103,411.821075 
	C1062.430542,404.498962 1086.314453,412.294678 1100.724731,434.146790 
	C1117.791748,460.027588 1125.116455,488.141846 1114.967041,518.641846 
	C1108.990601,536.601746 1096.971069,550.789856 1083.532715,563.719971 
	C1051.472534,594.567810 1015.320007,620.166687 978.483765,644.818604 
	C960.252197,657.019653 941.547668,668.514038 922.606567,680.616028 
	C927.621338,684.019592 932.574890,687.499878 937.643738,690.803284 
	C980.690247,718.858154 1025.794678,743.234009 1071.780640,766.066101 
	C1088.915161,774.573486 1106.041260,783.179260 1122.632202,792.681030 
	C1146.319702,806.246948 1160.971680,826.413330 1163.458984,854.208557 
	C1166.561646,888.880371 1142.191528,930.283997 1100.135376,933.484436 
	C1083.065063,934.783508 1067.138672,930.060913 1051.651123,923.529968 
	C1026.663452,912.992920 1003.810486,898.661255 981.405334,883.586792 
	C936.814819,853.585754 895.272522,819.696411 855.028748,784.162659 
	C853.689453,782.980042 852.290710,781.864685 849.930237,781.170410 
	C853.801208,798.753662 857.677490,816.335693 861.541809,833.920410 
	C865.463501,851.766663 870.370911,869.464844 873.093811,887.492615 
	C880.099731,933.876892 838.504272,966.046204 794.557739,948.846313 
	C777.201721,942.053528 766.276917,928.740112 758.150391,912.758179 
	C747.485901,891.785034 741.763489,869.139526 736.768738,846.339722 
	C721.418152,776.267334 713.261841,705.361816 713.383728,633.599854 
	C713.441833,599.410706 716.122192,565.362854 721.117615,531.074585 
z"/>
<path fill="#FBFAFB" opacity="1.000000" stroke="none" 
	d="
M371.404785,293.484314 
	C367.092621,304.704926 363.117859,315.630829 358.658752,326.355377 
	C357.290009,329.647278 354.967834,332.757965 352.434448,335.308075 
	C346.068420,341.716217 337.686157,340.564240 333.177521,332.802582 
	C331.781555,330.399445 330.653900,327.644440 330.203583,324.918365 
	C325.758179,298.007172 326.404907,271.445374 336.945160,245.849899 
	C338.872375,241.169891 341.713104,236.617569 345.051514,232.813034 
	C355.784027,220.581940 372.188934,223.783035 378.040466,239.044952 
	C381.591522,248.306732 380.427460,257.784241 378.364166,267.091461 
	C376.425079,275.838287 373.850708,284.444244 371.404785,293.484314 
z"/>
<path fill="#FBFAFB" opacity="1.000000" stroke="none" 
	d="
M217.429871,306.524292 
	C215.439713,301.061371 213.011276,296.033020 212.010040,290.734985 
	C210.549332,283.005554 212.949799,276.047882 219.638229,271.434601 
	C226.401703,266.769531 234.118881,267.115845 240.318390,271.599213 
	C246.925232,276.377167 253.000000,282.356079 257.971497,288.835419 
	C269.080353,303.313477 277.064697,319.619965 282.750519,336.970764 
	C283.981171,340.726135 284.815826,344.759644 284.953003,348.695709 
	C285.293152,358.453857 277.467316,363.781525 268.481171,360.001770 
	C265.299896,358.663696 262.222443,356.803864 259.516937,354.654449 
	C242.665665,341.266724 228.549667,325.441956 217.429871,306.524292 
z"/>
<path fill="#FBFAFB" opacity="1.000000" stroke="none" 
	d="
M158.976837,409.293549 
	C157.142441,408.737244 155.669983,408.395264 154.304626,407.805389 
	C141.279953,402.178406 139.377670,387.861420 150.542496,379.078979 
	C158.554276,372.776794 168.129059,370.587646 177.942398,369.426727 
	C196.558380,367.224457 214.408310,369.742584 231.060287,378.810913 
	C232.514389,379.602783 233.993164,380.425751 235.254990,381.480194 
	C239.374100,384.922302 242.598602,388.872925 241.103241,394.767029 
	C239.628326,400.580505 235.153824,403.138336 229.790176,403.836090 
	C215.287079,405.722717 200.748535,407.355988 186.202591,408.885590 
	C179.762939,409.562805 173.275558,409.857269 166.801392,410.099152 
	C164.342667,410.190979 161.860153,409.647034 158.976837,409.293549 
z"/>
<path fill="#2C2C2C" opacity="1.000000" stroke="none" 
	d="
M148.369720,32.044632 
	C154.845612,28.440533 161.604294,24.667974 168.594635,21.389315 
	C172.613495,19.504345 177.007645,18.419466 181.625381,16.980927 
	C179.129684,18.437775 176.292175,20.001886 173.343506,21.316690 
	C165.170319,24.961094 156.950836,28.501646 148.369720,32.044632 
z"/>
<path fill="#292928" opacity="1.000000" stroke="none" 
	d="
M1166.113037,74.302704 
	C1167.193359,74.396965 1168.775513,74.447311 1169.543701,75.263535 
	C1175.759766,81.868744 1181.823242,88.617767 1187.973022,95.667168 
	C1185.967773,94.440315 1183.703979,93.083305 1181.919189,91.257797 
	C1176.591187,85.808342 1171.451050,80.175148 1166.113037,74.302704 
z"/>
<path fill="#292929" opacity="1.000000" stroke="none" 
	d="
M90.011002,1182.657959 
	C84.687408,1177.901123 79.367134,1172.793457 74.020943,1167.341553 
	C79.334793,1172.100464 84.674553,1177.203857 90.011002,1182.657959 
z"/>
<path fill="#2C2C2C" opacity="1.000000" stroke="none" 
	d="
M75.355499,88.016518 
	C79.459793,83.292007 83.914612,78.589897 88.690445,73.716896 
	C84.576324,78.376984 80.141174,83.207947 75.355499,88.016518 
z"/>
<path fill="#2A2A2A" opacity="1.000000" stroke="none" 
	d="
M1230.690430,1093.122070 
	C1227.880127,1099.567993 1224.750977,1106.148560 1221.306885,1112.870850 
	C1224.118530,1106.427246 1227.244995,1099.842041 1230.690430,1093.122070 
z"/>
<path fill="#2C2C2C" opacity="1.000000" stroke="none" 
	d="
M113.355194,54.036804 
	C118.086868,50.346447 123.188072,46.683949 128.647797,43.007046 
	C123.912453,46.683315 118.818588,50.373989 113.355194,54.036804 
z"/>
<path fill="#292928" opacity="1.000000" stroke="none" 
	d="
M1133.011963,47.342155 
	C1137.920654,50.456448 1142.841431,53.916191 1147.885376,57.690689 
	C1143.013672,54.566166 1138.018921,51.126888 1133.011963,47.342155 
z"/>
<path fill="#292929" opacity="1.000000" stroke="none" 
	d="
M109.878105,1198.697266 
	C106.090347,1196.210205 102.169701,1193.412598 98.119843,1190.304810 
	C101.908821,1192.791992 105.827019,1195.589355 109.878105,1198.697266 
z"/>
<path fill="#2A2A2A" opacity="1.000000" stroke="none" 
	d="
M1196.648682,1149.001709 
	C1194.200317,1152.584473 1191.403198,1156.164795 1188.299072,1159.878784 
	C1190.761353,1156.341431 1193.530640,1152.670288 1196.648682,1149.001709 
z"/>
<path fill="#2C2C2C" opacity="1.000000" stroke="none" 
	d="
M133.358688,40.989098 
	C137.092789,38.343319 141.188339,35.685528 145.647232,33.008270 
	C141.913757,35.651566 137.816956,38.314327 133.358688,40.989098 
z"/>
<path fill="#2C2C2C" opacity="1.000000" stroke="none" 
	d="
M99.335930,65.975464 
	C102.097000,63.020618 105.203766,60.031128 108.660828,57.014702 
	C105.901291,59.972118 102.791451,62.956470 99.335930,65.975464 
z"/>
<path fill="#292928" opacity="1.000000" stroke="none" 
	d="
M1222.969971,147.367432 
	C1225.332520,151.409912 1227.672729,155.831787 1230.010254,160.631989 
	C1227.654175,156.589172 1225.300781,152.167999 1222.969971,147.367432 
z"/>
<path fill="#2C2C2C" opacity="1.000000" stroke="none" 
	d="
M26.314957,160.892105 
	C28.116003,156.426422 30.242294,151.838745 32.688496,147.118927 
	C30.885670,151.581223 28.762936,156.175674 26.314957,160.892105 
z"/>
<path fill="#292928" opacity="1.000000" stroke="none" 
	d="
M1229.959961,161.382004 
	C1232.007202,165.404266 1234.020996,169.820084 1236.022217,174.624542 
	C1233.981812,170.600647 1231.954102,166.188110 1229.959961,161.382004 
z"/>
<path fill="#2C2C2C" opacity="1.000000" stroke="none" 
	d="
M50.341839,119.009567 
	C52.455799,115.425972 54.921471,111.843285 57.697113,108.124397 
	C55.569241,111.662292 53.131397,115.336380 50.341839,119.009567 
z"/>
<path fill="#272727" opacity="1.000000" stroke="none" 
	d="
M26.013329,1093.633057 
	C23.994501,1089.933716 21.980570,1085.855225 19.985184,1081.391602 
	C22.008558,1085.088989 24.013390,1089.171509 26.013329,1093.633057 
z"/>
<path fill="#292929" opacity="1.000000" stroke="none" 
	d="
M34.984352,1111.639282 
	C32.992134,1108.581909 30.983816,1105.162842 28.982460,1101.364258 
	C30.982365,1104.415649 32.975307,1107.846558 34.984352,1111.639282 
z"/>
<path fill="#292928" opacity="1.000000" stroke="none" 
	d="
M1149.021484,59.329597 
	C1151.666260,61.093300 1154.341919,63.196774 1157.011353,65.652473 
	C1154.354370,63.892925 1151.703369,61.781143 1149.021484,59.329597 
z"/>
<path fill="#2A2A2A" opacity="1.000000" stroke="none" 
	d="
M1157.667480,1189.024658 
	C1155.579712,1191.342529 1153.149292,1193.695557 1150.353027,1196.029053 
	C1152.433105,1193.692871 1154.879028,1191.376343 1157.667480,1189.024658 
z"/>
<path fill="#292928" opacity="1.000000" stroke="none" 
	d="
M1158.994629,67.338371 
	C1161.325317,69.096161 1163.660034,71.203308 1166.002197,73.660072 
	C1163.672485,71.902367 1161.335571,69.795052 1158.994629,67.338371 
z"/>
<path fill="#2A2A2A" opacity="1.000000" stroke="none" 
	d="
M1166.635498,1181.962769 
	C1164.893799,1183.992432 1162.787598,1185.984985 1160.335938,1187.993896 
	C1162.083984,1185.982056 1164.177490,1183.953857 1166.635498,1181.962769 
z"/>
<path fill="#2A2A2A" opacity="1.000000" stroke="none" 
	d="
M1137.656738,1205.012695 
	C1135.571777,1206.977539 1133.134277,1208.963867 1130.343750,1210.979980 
	C1132.428589,1209.018066 1134.866333,1207.026123 1137.656738,1205.012695 
z"/>
<path fill="#2C2C2C" opacity="1.000000" stroke="none" 
	d="
M89.962860,73.055984 
	C91.811188,71.025963 94.067688,69.040619 96.667542,67.021545 
	C94.797615,69.025436 92.584335,71.063057 89.962860,73.055984 
z"/>
<path fill="#2C2C2C" opacity="1.000000" stroke="none" 
	d="
M69.242043,96.105392 
	C70.408791,94.210701 71.843315,92.081886 73.638611,89.975906 
	C72.502869,91.956245 71.006340,93.913765 69.242043,96.105392 
z"/>
<path fill="#292929" opacity="1.000000" stroke="none" 
	d="
M65.983795,1156.665527 
	C64.321892,1155.243652 62.637817,1153.480713 60.971569,1151.351318 
	C62.646805,1152.764771 64.304214,1154.544678 65.983795,1156.665527 
z"/>
<path fill="#292929" opacity="1.000000" stroke="none" 
	d="
M39.036072,1119.638428 
	C37.641701,1117.588989 36.276554,1115.166626 34.954678,1112.372192 
	C36.353737,1114.421875 37.709518,1116.843750 39.036072,1119.638428 
z"/>
<path fill="#292929" opacity="1.000000" stroke="none" 
	d="
M48.995506,1134.659912 
	C47.659142,1133.245605 46.310307,1131.482666 44.975571,1129.352417 
	C46.320789,1130.760498 47.651913,1132.536011 48.995506,1134.659912 
z"/>
<path fill="#2A2A2A" opacity="1.000000" stroke="none" 
	d="
M1203.695068,1139.122070 
	C1202.884277,1140.916260 1201.761230,1142.842896 1200.315674,1144.889893 
	C1201.123047,1143.091675 1202.252930,1141.173096 1203.695068,1139.122070 
z"/>
<path fill="#272727" opacity="1.000000" stroke="none" 
	d="
M29.020252,1100.643311 
	C27.985222,1098.925903 26.961910,1096.838867 25.965488,1094.369385 
	C27.005577,1096.082520 28.018772,1098.178101 29.020252,1100.643311 
z"/>
<path fill="#2A2A2A" opacity="1.000000" stroke="none" 
	d="
M1173.652832,1174.987305 
	C1172.897583,1176.315918 1171.791138,1177.633179 1170.342407,1178.975708 
	C1171.100586,1177.659302 1172.201172,1176.317505 1173.652832,1174.987305 
z"/>
<path fill="#292929" opacity="1.000000" stroke="none" 
	d="
M95.997902,1187.663818 
	C94.673950,1186.903198 93.338089,1185.796265 91.996857,1184.340820 
	C93.322990,1185.100708 94.654488,1186.209229 95.997902,1187.663818 
z"/>
<path fill="#2C2C2C" opacity="1.000000" stroke="none" 
	d="
M63.339046,102.010239 
	C64.099693,100.668800 65.207863,99.330391 66.663399,97.990707 
	C65.902695,99.330704 64.794640,100.671982 63.339046,102.010239 
z"/>
<path fill="#2A2A2A" opacity="1.000000" stroke="none" 
	d="
M1216.651489,1120.022339 
	C1216.202515,1121.567993 1215.398438,1123.141846 1214.291992,1124.866455 
	C1214.758545,1123.361694 1215.527466,1121.706055 1216.651489,1120.022339 
z"/>
<path fill="#2A2A2A" opacity="1.000000" stroke="none" 
	d="
M1219.652710,1115.014648 
	C1219.212646,1116.577271 1218.416382,1118.163086 1217.307861,1119.878540 
	C1217.762451,1118.351440 1218.529419,1116.694458 1219.652710,1115.014648 
z"/>
<path fill="#292929" opacity="1.000000" stroke="none" 
	d="
M42.032799,1124.652100 
	C41.019638,1123.574097 40.025345,1122.125732 39.010777,1120.334473 
	C40.010891,1121.421631 41.031281,1122.851685 42.032799,1124.652100 
z"/>
<path fill="#292928" opacity="1.000000" stroke="none" 
	d="
M1213.968140,131.351898 
	C1214.974731,132.431961 1215.960693,133.882721 1216.982056,135.675262 
	C1215.994141,134.585556 1214.970825,133.154068 1213.968140,131.351898 
z"/>
<path fill="#292928" opacity="1.000000" stroke="none" 
	d="
M1198.014404,109.321480 
	C1199.014404,110.086967 1200.037964,111.183960 1201.035034,112.646553 
	C1200.018433,111.892426 1199.028198,110.772713 1198.014404,109.321480 
z"/>
<path fill="#292929" opacity="1.000000" stroke="none" 
	d="
M119.997406,1206.649658 
	C118.755287,1206.207764 117.501183,1205.405640 116.118088,1204.298340 
	C117.321213,1204.758667 118.653320,1205.524048 119.997406,1206.649658 
z"/>
<path fill="#2A2A2A" opacity="1.000000" stroke="none" 
	d="
M1141.677979,1202.009521 
	C1140.914429,1203.016357 1139.818604,1204.042603 1138.355835,1205.038574 
	C1139.107788,1204.015015 1140.226685,1203.022095 1141.677979,1202.009521 
z"/>
<path fill="#292928" opacity="1.000000" stroke="none" 
	d="
M1192.966309,102.354462 
	C1193.980225,103.109413 1194.966675,104.228889 1195.982422,105.679977 
	C1194.987549,104.914062 1193.963257,103.816528 1192.966309,102.354462 
z"/>
<path fill="#2A2A2A" opacity="1.000000" stroke="none" 
	d="
M1145.678711,1199.010986 
	C1144.914429,1200.015137 1143.818481,1201.040771 1142.354980,1202.037720 
	C1143.107300,1201.016724 1144.227173,1200.024536 1145.678711,1199.010986 
z"/>
<path fill="#2A2A2A" opacity="1.000000" stroke="none" 
	d="
M1149.678223,1196.006836 
	C1148.913452,1197.014893 1147.816040,1198.040039 1146.352783,1199.037109 
	C1147.106567,1198.014038 1148.226074,1197.018921 1149.678223,1196.006836 
z"/>
<path fill="#292929" opacity="1.000000" stroke="none" 
	d="
M73.039421,1165.643188 
	C72.013069,1164.890259 71.021729,1163.773071 70.009216,1162.322266 
	C71.016838,1163.085449 72.045631,1164.182129 73.039421,1165.643188 
z"/>
<path fill="#2A2A2A" opacity="1.000000" stroke="none" 
	d="
M1185.635742,1162.011230 
	C1185.181152,1163.309082 1184.352051,1164.627686 1183.256226,1166.189453 
	C1183.746704,1164.965698 1184.503906,1163.498901 1185.635742,1162.011230 
z"/>
<path fill="#2A2A2A" opacity="1.000000" stroke="none" 
	d="
M1169.650269,1178.984985 
	C1169.227783,1179.987549 1168.454468,1180.975098 1167.340576,1181.981323 
	C1167.766479,1180.989990 1168.532837,1179.979980 1169.650269,1178.984985 
z"/>
<path fill="#292929" opacity="1.000000" stroke="none" 
	d="
M60.982536,1150.667969 
	C60.024944,1150.232056 59.037926,1149.452148 58.019611,1148.331055 
	C58.976582,1148.767822 59.964844,1149.545776 60.982536,1150.667969 
z"/>
<path fill="#2C2C2C" opacity="1.000000" stroke="none" 
	d="
M58.337662,108.017166 
	C58.769108,107.014442 59.548180,106.020332 60.668873,105.007645 
	C60.235424,106.001297 59.460350,107.013535 58.337662,108.017166 
z"/>
<path fill="#292928" opacity="1.000000" stroke="none" 
	d="
M1189.019775,98.338837 
	C1189.985840,98.770065 1190.973633,99.543861 1191.983398,100.661072 
	C1191.017456,100.230125 1190.029541,99.455757 1189.019775,98.338837 
z"/>
<path fill="#292928" opacity="1.000000" stroke="none" 
	d="
M1201.020142,113.333672 
	C1201.975098,113.770424 1202.959717,114.551025 1203.979248,115.672058 
	C1203.026001,115.234169 1202.037842,114.455849 1201.020142,113.333672 
z"/>
<path fill="#292929" opacity="1.000000" stroke="none" 
	d="
M113.002464,1201.666504 
	C112.006126,1201.234741 111.002357,1200.458984 109.994652,1199.337402 
	C110.992157,1199.768433 111.993599,1200.545532 113.002464,1201.666504 
z"/>
<path fill="#2C2C2C" opacity="1.000000" stroke="none" 
	d="
M22.333344,169.866882 
	C22.477224,168.464478 22.958132,166.925354 23.723328,165.185455 
	C23.561867,166.566513 23.116119,168.148331 22.333344,169.866882 
z"/>
<path fill="#292928" opacity="1.000000" stroke="none" 
	d="
M1207.963501,122.338333 
	C1208.688843,123.093773 1209.385498,124.199837 1210.043457,125.656616 
	C1209.314941,124.901199 1208.624878,123.795074 1207.963501,122.338333 
z"/>
<path fill="#2C2C2C" opacity="1.000000" stroke="none" 
	d="
M129.342331,43.048141 
	C130.094437,42.304554 131.197617,41.604080 132.651276,40.950554 
	C131.898972,41.695423 130.796188,42.393337 129.342331,43.048141 
z"/>
<path fill="#292928" opacity="1.000000" stroke="none" 
	d="
M1203.965576,116.334885 
	C1204.684326,117.092598 1205.378784,118.202499 1206.040894,119.662598 
	C1205.319580,118.904213 1204.630371,117.795647 1203.965576,116.334885 
z"/>
<path fill="#2C2C2C" opacity="1.000000" stroke="none" 
	d="
M42.310226,131.871216 
	C42.451359,130.765472 42.911247,129.518356 43.689003,128.129791 
	C43.547573,129.235504 43.088280,130.482666 42.310226,131.871216 
z"/>
<path fill="#292928" opacity="1.000000" stroke="none" 
	d="
M1217.976929,138.336792 
	C1218.672974,139.094757 1219.354858,140.203491 1220.022949,141.662811 
	C1219.327148,140.904785 1218.645020,139.796173 1217.976929,138.336792 
z"/>
<path fill="#292929" opacity="1.000000" stroke="none" 
	d="
M44.030724,1127.655396 
	C43.353680,1127.218872 42.699104,1126.424805 42.013496,1125.306885 
	C42.672707,1125.754639 43.362946,1126.526245 44.030724,1127.655396 
z"/>
<path fill="#2C2C2C" opacity="1.000000" stroke="none" 
	d="
M44.344330,127.983780 
	C44.460629,127.083260 44.930679,126.157692 45.702702,125.112068 
	C45.569141,125.980919 45.133610,126.969818 44.344330,127.983780 
z"/>
<path fill="#2A2A2A" opacity="1.000000" stroke="none" 
	d="
M1207.654053,1134.024536 
	C1207.532104,1134.913330 1207.058838,1135.830933 1206.288940,1136.880371 
	C1206.429199,1136.025879 1206.866089,1135.039673 1207.654053,1134.024536 
z"/>
<path fill="#292928" opacity="1.000000" stroke="none" 
	d="
M1211.966553,128.346344 
	C1212.649658,128.779663 1213.307983,129.572800 1213.990479,130.690155 
	C1213.323730,130.244980 1212.632812,129.475586 1211.966553,128.346344 
z"/>
<path fill="#2A2A2A" opacity="1.000000" stroke="none" 
	d="
M1213.659180,1125.014893 
	C1213.542480,1125.913696 1213.071655,1126.840698 1212.298218,1127.888062 
	C1212.432007,1127.020020 1212.868530,1126.031616 1213.659180,1125.014893 
z"/>
<path fill="#292929" opacity="1.000000" stroke="none" 
	d="
M58.033043,1147.655640 
	C57.347866,1147.221069 56.687153,1146.428467 56.007027,1145.311768 
	C56.677582,1145.757568 57.367542,1146.527588 58.033043,1147.655640 
z"/>
<path fill="#2A2A2A" opacity="1.000000" stroke="none" 
	d="
M1211.654541,1128.020264 
	C1211.545166,1128.923218 1211.083496,1129.852295 1210.313965,1130.886719 
	C1210.438110,1130.010254 1210.870239,1129.028198 1211.654541,1128.020264 
z"/>
<path fill="#2C2C2C" opacity="1.000000" stroke="none" 
	d="
M36.346207,140.986023 
	C36.462090,140.078476 36.931442,139.150665 37.703918,138.105865 
	C37.571247,138.981171 37.135460,139.973450 36.346207,140.986023 
z"/>
<path fill="#2A2A2A" opacity="1.000000" stroke="none" 
	d="
M1209.642822,1131.027588 
	C1209.530029,1131.929443 1209.065918,1132.851807 1208.299072,1133.890381 
	C1208.428223,1133.020386 1208.859863,1132.034180 1209.642822,1131.027588 
z"/>
<path fill="#2A2A2A" opacity="1.000000" stroke="none" 
	d="
M1199.653931,1145.021973 
	C1199.531738,1145.906250 1199.055176,1146.820557 1198.284912,1147.874512 
	C1198.427246,1147.026733 1198.863403,1146.039307 1199.653931,1145.021973 
z"/>
<path fill="#2C2C2C" opacity="1.000000" stroke="none" 
	d="
M39.340050,135.984558 
	C39.457752,135.082870 39.928131,134.153427 40.702965,133.106171 
	C40.569191,133.977844 40.130959,134.967300 39.340050,135.984558 
z"/>
<path fill="#2C2C2C" opacity="1.000000" stroke="none" 
	d="
M46.346046,124.981415 
	C46.465813,124.083511 46.938335,123.161194 47.710007,122.112175 
	C47.572376,122.975990 47.135590,123.966499 46.346046,124.981415 
z"/>
<path fill="#292928" opacity="1.000000" stroke="none" 
	d="
M1127.014404,43.344978 
	C1127.911621,43.458294 1128.833740,43.927719 1129.877930,44.697868 
	C1129.013062,44.566090 1128.026001,44.133587 1127.014404,43.344978 
z"/>
<path fill="#292928" opacity="1.000000" stroke="none" 
	d="
M1130.017822,45.354885 
	C1130.920166,45.466831 1131.840210,45.933826 1132.881836,46.701065 
	C1132.014160,46.570850 1131.025024,46.140392 1130.017822,45.354885 
z"/>
<path fill="#2C2C2C" opacity="1.000000" stroke="none" 
	d="
M48.340317,121.978180 
	C48.462509,121.090668 48.936733,120.169746 49.709000,119.118591 
	C49.568817,119.973824 49.130585,120.959297 48.340317,121.978180 
z"/>
<path fill="#292929" opacity="1.000000" stroke="none" 
	d="
M115.976608,1203.656006 
	C115.091125,1203.533325 114.173676,1203.058105 113.121574,1202.287354 
	C113.972824,1202.429077 114.958725,1202.866333 115.976608,1203.656006 
z"/>
<path fill="#292929" opacity="1.000000" stroke="none" 
	d="
M69.019211,1160.682617 
	C68.327805,1160.225830 67.647110,1159.438965 66.979996,1158.322021 
	C67.672363,1158.778687 68.351143,1159.565430 69.019211,1160.682617 
z"/>
<path fill="#2A2A2A" opacity="1.000000" stroke="none" 
	d="
M1205.681396,1137.000244 
	C1205.556885,1137.655518 1205.103271,1138.319946 1204.320679,1138.996582 
	C1204.445190,1138.342285 1204.898682,1137.676025 1205.681396,1137.000244 
z"/>
<path fill="#292928" opacity="1.000000" stroke="none" 
	d="
M1206.027588,120.315628 
	C1206.640015,120.445274 1207.290283,120.900978 1207.975098,121.683014 
	C1207.361694,121.553459 1206.713623,121.097565 1206.027588,120.315628 
z"/>
<path fill="#292929" opacity="1.000000" stroke="none" 
	d="
M54.973042,1142.685791 
	C54.356823,1142.559204 53.701794,1142.106812 53.022129,1141.327148 
	C53.643078,1141.453369 54.288654,1141.906860 54.973042,1142.685791 
z"/>
<path fill="#292928" opacity="1.000000" stroke="none" 
	d="
M1195.989136,106.313828 
	C1196.667969,106.773628 1197.345703,107.562569 1198.015991,108.681686 
	C1197.335083,108.222237 1196.661621,107.432602 1195.989136,106.313828 
z"/>
<path fill="#2C2C2C" opacity="1.000000" stroke="none" 
	d="
M111.326019,55.983181 
	C111.444344,55.348499 111.893356,54.693443 112.676682,54.013214 
	C112.559570,54.646290 112.108147,55.304546 111.326019,55.983181 
z"/>
<path fill="#292928" opacity="1.000000" stroke="none" 
	d="
M1210.022705,126.322418 
	C1210.644531,126.446915 1211.294556,126.900230 1211.977783,127.681961 
	C1211.357666,127.557335 1210.704346,127.104286 1210.022705,126.322418 
z"/>
<path fill="#292929" opacity="1.000000" stroke="none" 
	d="
M51.978844,1138.676147 
	C51.349949,1138.556152 50.694767,1138.106445 50.017090,1137.326660 
	C50.647247,1137.446533 51.299904,1137.896606 51.978844,1138.676147 
z"/>
<path fill="#2C2C2C" opacity="1.000000" stroke="none" 
	d="
M61.303043,104.901688 
	C61.455585,104.081764 61.920666,103.150772 62.696033,102.104965 
	C62.542740,102.923637 62.079163,103.857124 61.303043,104.901688 
z"/>
<path fill="#292929" opacity="1.000000" stroke="none" 
	d="
M98.003075,1189.672607 
	C97.400917,1189.523438 96.795746,1189.037964 96.089088,1188.271973 
	C96.658432,1188.439819 97.329247,1188.888184 98.003075,1189.672607 
z"/>
<path fill="#2C2C2C" opacity="1.000000" stroke="none" 
	d="
M25.278313,162.887115 
	C25.154341,162.441574 25.318506,161.869446 25.745724,161.140961 
	C25.861334,161.576584 25.713892,162.168549 25.278313,162.887115 
z"/>
<path fill="#2C2C2C" opacity="1.000000" stroke="none" 
	d="
M97.295769,67.029099 
	C97.452782,66.651344 97.920708,66.293877 98.700760,65.964203 
	C98.544144,66.344467 98.075417,66.696938 97.295769,67.029099 
z"/>
<path fill="#292929" opacity="1.000000" stroke="none" 
	d="
M91.862854,1183.734619 
	C91.435791,1183.849854 90.861076,1183.692749 90.137634,1183.264648 
	C90.564331,1183.150024 91.139763,1183.306152 91.862854,1183.734619 
z"/>
<path fill="#2C2C2C" opacity="1.000000" stroke="none" 
	d="
M109.295746,57.026123 
	C109.451981,56.656353 109.919273,56.303898 110.695648,55.973721 
	C110.538750,56.345146 110.072784,56.694290 109.295746,57.026123 
z"/>
<path fill="#2A2A2A" opacity="1.000000" stroke="none" 
	d="
M1159.703857,1187.983154 
	C1159.544800,1188.344116 1159.076538,1188.696411 1158.297363,1189.028687 
	C1158.455933,1188.663940 1158.925293,1188.319092 1159.703857,1187.983154 
z"/>
<path fill="#292928" opacity="1.000000" stroke="none" 
	d="
M1216.981201,136.289566 
	C1217.322998,136.451843 1217.659302,136.927155 1218.002686,137.708191 
	C1217.665039,137.543488 1217.320312,137.073044 1216.981201,136.289566 
z"/>
<path fill="#292928" opacity="1.000000" stroke="none" 
	d="
M1157.140991,66.266815 
	C1157.564941,66.154572 1158.136108,66.313835 1158.860596,66.740486 
	C1158.438599,66.851364 1157.863403,66.694855 1157.140991,66.266815 
z"/>
<path fill="#2C2C2C" opacity="1.000000" stroke="none" 
	d="
M74.275787,89.861404 
	C74.143303,89.424103 74.287849,88.848518 74.713654,88.139847 
	C74.847549,88.578873 74.700188,89.151001 74.275787,89.861404 
z"/>
<path fill="#2C2C2C" opacity="1.000000" stroke="none" 
	d="
M38.275143,137.876587 
	C38.157787,137.441681 38.323421,136.872528 38.749069,136.143494 
	C38.858765,136.569839 38.708450,137.156097 38.275143,137.876587 
z"/>
<path fill="#2C2C2C" opacity="1.000000" stroke="none" 
	d="
M24.280451,164.890472 
	C24.156574,164.444534 24.323277,163.875229 24.749062,163.145630 
	C24.862438,163.579269 24.716734,164.173187 24.280451,164.890472 
z"/>
<path fill="#2C2C2C" opacity="1.000000" stroke="none" 
	d="
M35.280701,142.888550 
	C35.148342,142.439240 35.307152,141.863510 35.735374,141.139374 
	C35.860481,141.581345 35.716175,142.171722 35.280701,142.888550 
z"/>
<path fill="#2A2A2A" opacity="1.000000" stroke="none" 
	d="
M1231.726318,1091.121582 
	C1231.851562,1091.565796 1231.693848,1092.144531 1231.263794,1092.868530 
	C1231.142212,1092.427856 1231.292847,1091.841919 1231.726318,1091.121582 
z"/>
<path fill="#292928" opacity="1.000000" stroke="none" 
	d="
M1221.985107,145.294312 
	C1222.324707,145.455643 1222.659180,145.928391 1223.000977,146.706451 
	C1222.665527,146.543076 1222.322876,146.074387 1221.985107,145.294312 
z"/>
<path fill="#292928" opacity="1.000000" stroke="none" 
	d="
M1187.975586,96.294281 
	C1188.339966,96.451363 1188.689331,96.919586 1189.020874,97.695679 
	C1188.655640,97.537514 1188.308228,97.071465 1187.975586,96.294281 
z"/>
<path fill="#2C2C2C" opacity="1.000000" stroke="none" 
	d="
M33.268311,146.872406 
	C33.152805,146.438538 33.314598,145.863998 33.742683,145.137054 
	C33.854519,145.567001 33.700066,146.149384 33.268311,146.872406 
z"/>
<path fill="#292928" opacity="1.000000" stroke="none" 
	d="
M1220.987061,143.292877 
	C1221.321533,143.456390 1221.653687,143.931290 1221.998291,144.711349 
	C1221.668945,144.545776 1221.326904,144.075027 1220.987061,143.292877 
z"/>
<path fill="#2A2A2A" opacity="1.000000" stroke="none" 
	d="
M1220.725464,1113.121460 
	C1220.845947,1113.559082 1220.683228,1114.130371 1220.257080,1114.856567 
	C1220.143066,1114.426025 1220.292603,1113.840576 1220.725464,1113.121460 
z"/>
<path fill="#2C2C2C" opacity="1.000000" stroke="none" 
	d="
M146.300934,33.029671 
	C146.455795,32.670101 146.925827,32.332211 147.702759,31.993515 
	C147.545120,32.345585 147.080597,32.698463 146.300934,33.029671 
z"/>
<path fill="#292929" opacity="1.000000" stroke="none" 
	d="
M56.006851,1144.709229 
	C55.665371,1144.545654 55.320526,1144.074707 54.982925,1143.294189 
	C55.327938,1143.456909 55.665707,1143.929565 56.006851,1144.709229 
z"/>
<path fill="#292929" opacity="1.000000" stroke="none" 
	d="
M50.021687,1136.696045 
	C49.662472,1136.539429 49.321880,1136.072510 48.987015,1135.297607 
	C49.341934,1135.455200 49.691120,1135.920532 50.021687,1136.696045 
z"/>
<path fill="#292929" opacity="1.000000" stroke="none" 
	d="
M53.019760,1140.694092 
	C52.649052,1140.539795 52.297646,1140.077515 51.970592,1139.304199 
	C52.342983,1139.457520 52.691025,1139.921753 53.019760,1140.694092 
z"/>
<path fill="#2C2C2C" opacity="1.000000" stroke="none" 
	d="
M34.268929,144.877167 
	C34.157837,144.446030 34.325829,143.877380 34.751457,143.146423 
	C34.855404,143.569305 34.701706,144.154465 34.268929,144.877167 
z"/>
<path fill="#2A2A2A" opacity="1.000000" stroke="none" 
	d="
M1177.753662,1171.058838 
	C1177.831055,1171.274048 1177.653442,1171.555664 1177.234619,1171.922607 
	C1177.161743,1171.713745 1177.330200,1171.419556 1177.753662,1171.058838 
z"/>
<path fill="#292928" opacity="1.000000" stroke="none" 
	d="
M1192.065430,101.245651 
	C1192.275391,101.171661 1192.555786,101.349510 1192.922485,101.767830 
	C1192.717896,101.838036 1192.426880,101.667770 1192.065430,101.245651 
z"/>
<path fill="#2A2A2A" opacity="1.000000" stroke="none" 
	d="
M1174.753052,1174.058838 
	C1174.831909,1174.275024 1174.656250,1174.556274 1174.239258,1174.920654 
	C1174.164795,1174.710571 1174.331665,1174.417236 1174.753052,1174.058838 
z"/>
<path fill="#2A2A2A" opacity="1.000000" stroke="none" 
	d="
M1175.752686,1173.059326 
	C1175.831055,1173.275513 1175.654419,1173.557617 1175.235840,1173.923584 
	C1175.161743,1173.713379 1175.329712,1173.419312 1175.752686,1173.059326 
z"/>
<path fill="#2A2A2A" opacity="1.000000" stroke="none" 
	d="
M1176.752930,1172.059448 
	C1176.830811,1172.274902 1176.653809,1172.556519 1176.235107,1172.922974 
	C1176.161743,1172.713623 1176.329834,1172.419678 1176.752930,1172.059448 
z"/>
<path fill="#2A2A2A" opacity="1.000000" stroke="none" 
	d="
M1179.110352,1170.022217 
	C1179.139282,1170.257324 1178.843628,1170.526611 1178.270020,1170.902100 
	C1178.256592,1170.691162 1178.521240,1170.373901 1179.110352,1170.022217 
z"/>
<path fill="#292929" opacity="1.000000" stroke="none" 
	d="
M73.936813,1166.751465 
	C73.723984,1166.828369 73.443871,1166.651733 73.078262,1166.234741 
	C73.285019,1166.162231 73.577278,1166.329956 73.936813,1166.751465 
z"/>
<path fill="#292928" opacity="1.000000" stroke="none" 
	d="
M1148.066040,58.242096 
	C1148.273926,58.171150 1148.554810,58.350327 1148.923218,58.769981 
	C1148.720215,58.837711 1148.429565,58.664963 1148.066040,58.242096 
z"/>
<path fill="#2A2A2A" opacity="1.000000" stroke="none" 
	d="
M1186.759399,1161.063232 
	C1186.830444,1161.270020 1186.649536,1161.550171 1186.229126,1161.920898 
	C1186.162354,1161.719849 1186.334839,1161.428223 1186.759399,1161.063232 
z"/>
<path fill="#292929" opacity="1.000000" stroke="none" 
	d="
M69.928619,1161.768921 
	C69.735863,1161.830322 69.458336,1161.646118 69.084396,1161.225830 
	C69.273277,1161.167480 69.558563,1161.345459 69.928619,1161.768921 
z"/>
<path fill="#2A2A2A" opacity="1.000000" stroke="none" 
	d="
M1187.758301,1160.061279 
	C1187.830566,1160.270264 1187.649780,1160.550537 1187.229492,1160.921143 
	C1187.161743,1160.718384 1187.333374,1160.425415 1187.758301,1160.061279 
z"/>
<path fill="#292929" opacity="1.000000" stroke="none" 
	d="
M66.920639,1157.767334 
	C66.715698,1157.837891 66.423775,1157.668335 66.062286,1157.246094 
	C66.273026,1157.171387 66.553337,1157.349365 66.920639,1157.767334 
z"/>
<path fill="#2C2C2C" opacity="1.000000" stroke="none" 
	d="
M67.262192,97.902611 
	C67.243881,97.694359 67.499725,97.376961 68.079155,97.018845 
	C68.113937,97.249901 67.825142,97.521683 67.262192,97.902611 
z"/>
<path fill="#2A2A2A" opacity="1.000000" stroke="none" 
	d="
M1197.757324,1148.049561 
	C1197.838013,1148.271362 1197.662842,1148.553955 1197.245850,1148.916626 
	C1197.169922,1148.701294 1197.335693,1148.405884 1197.757324,1148.049561 
z"/>
<path fill="#2C2C2C" opacity="1.000000" stroke="none" 
	d="
M41.240734,132.937805 
	C41.162140,132.716644 41.334793,132.423538 41.759331,132.059555 
	C41.838139,132.281082 41.665062,132.573471 41.240734,132.937805 
z"/>
<path fill="#292929" opacity="1.000000" stroke="none" 
	d="
M44.923187,1128.771484 
	C44.733471,1128.832397 44.453274,1128.650757 44.080547,1128.229248 
	C44.269581,1128.169312 44.551144,1128.349121 44.923187,1128.771484 
z"/>
<path fill="#292928" opacity="1.000000" stroke="none" 
	d="
M1220.076172,142.232635 
	C1220.269531,142.169434 1220.550415,142.350937 1220.923950,142.774002 
	C1220.732300,142.836151 1220.447998,142.656738 1220.076172,142.232635 
z"/>
<path fill="#020202" opacity="1.000000" stroke="none" 
	d="
M521.347839,793.348999 
	C501.429779,812.000000 479.172028,826.282227 453.812958,835.498108 
	C439.336304,840.759033 436.913208,839.591003 432.672333,824.684265 
	C424.546692,796.122681 416.702087,767.480713 408.831116,738.847290 
	C407.064728,732.421631 408.311676,729.506897 413.959778,726.545776 
	C437.878540,714.005432 462.945557,704.537109 489.913269,701.763428 
	C500.323822,700.692627 511.369293,701.179565 521.554688,703.481995 
	C543.764160,708.502502 554.596375,727.837036 549.329224,750.016479 
	C545.817932,764.802124 537.059570,776.419983 527.224854,787.424194 
	C525.452087,789.407776 523.482178,791.215088 521.347839,793.348999 
z"/>
<path fill="#030202" opacity="1.000000" stroke="none" 
	d="
M366.796143,544.184326 
	C365.359009,532.854126 363.817627,521.979675 362.711914,511.061218 
	C362.515656,509.123688 363.539246,506.288025 365.001587,505.075043 
	C382.754639,490.348969 402.595886,479.872864 425.857849,477.338318 
	C445.765289,475.169250 459.126465,486.857910 461.059540,507.307129 
	C462.631165,523.932251 457.650787,538.970276 449.440674,552.936646 
	C432.288696,582.114136 408.234253,604.902283 380.039307,626.319885 
	C375.510498,598.288696 371.175476,571.456909 366.796143,544.184326 
z"/>
</svg>